<?xml version="1.0" encoding="UTF-8" standalone="no"?>
<!DOCTYPE svg PUBLIC "-//W3C//DTD SVG 1.1//EN"
 "http://www.w3.org/Graphics/SVG/1.1/DTD/svg11.dtd">
<!-- Generated by graphviz version 7.1.0 (20230121.1956)
 -->
<!-- Title: dependency&#45;cruiser output Pages: 1 -->
<svg width="578pt" height="748pt"
 viewBox="0.00 0.00 578.00 748.00" xmlns="http://www.w3.org/2000/svg" xmlns:xlink="http://www.w3.org/1999/xlink">
<g id="graph0" class="graph" transform="scale(1 1) rotate(0) translate(4 744)">
<title>dependency&#45;cruiser output</title>
<polygon fill="white" stroke="none" points="-4,4 -4,-744 574,-744 574,4 -4,4"/>
<g id="clust1" class="cluster">
<title>cluster_src</title>
<path fill="#ffffff" stroke="black" stroke-width="2" d="M20,-8C20,-8 550,-8 550,-8 556,-8 562,-14 562,-20 562,-20 562,-720 562,-720 562,-726 556,-732 550,-732 550,-732 20,-732 20,-732 14,-732 8,-726 8,-720 8,-720 8,-20 8,-20 8,-14 14,-8 20,-8"/>
<text text-anchor="middle" x="285" y="-720.8" font-family="Helvetica,sans-Serif" font-weight="bold" font-size="9.00">src</text>
</g>
<g id="clust2" class="cluster">
<title>cluster_src/artwork</title>
<path fill="#ffffff" stroke="black" stroke-width="2" d="M266,-360C266,-360 464,-360 464,-360 470,-360 476,-366 476,-372 476,-372 476,-670 476,-670 476,-676 470,-682 464,-682 464,-682 266,-682 266,-682 260,-682 254,-676 254,-670 254,-670 254,-372 254,-372 254,-366 260,-360 266,-360"/>
<text text-anchor="middle" x="365" y="-670.8" font-family="Helvetica,sans-Serif" font-weight="bold" font-size="9.00">artwork</text>
</g>
<g id="clust3" class="cluster">
<title>cluster_src/classes</title>
<path fill="#ffffff" stroke="black" stroke-width="2" d="M101,-106C101,-106 392.5,-106 392.5,-106 398.5,-106 404.5,-112 404.5,-118 404.5,-118 404.5,-340 404.5,-340 404.5,-346 398.5,-352 392.5,-352 392.5,-352 101,-352 101,-352 95,-352 89,-346 89,-340 89,-340 89,-118 89,-118 89,-112 95,-106 101,-106"/>
<text text-anchor="middle" x="246.75" y="-340.8" font-family="Helvetica,sans-Serif" font-weight="bold" font-size="9.00">classes</text>
</g>
<g id="clust4" class="cluster">
<title>cluster_src/lib</title>
<path fill="#ffffff" stroke="black" stroke-width="2" d="M342,-16C342,-16 388,-16 388,-16 394,-16 400,-22 400,-28 400,-28 400,-86 400,-86 400,-92 394,-98 388,-98 388,-98 342,-98 342,-98 336,-98 330,-92 330,-86 330,-86 330,-28 330,-28 330,-22 336,-16 342,-16"/>
<text text-anchor="middle" x="365" y="-86.8" font-family="Helvetica,sans-Serif" font-weight="bold" font-size="9.00">lib</text>
</g>
<g id="clust5" class="cluster">
<title>cluster_src/types</title>
<path fill="#ffffff" stroke="black" stroke-width="2" d="M496,-258C496,-258 542,-258 542,-258 548,-258 554,-264 554,-270 554,-270 554,-298 554,-298 554,-304 548,-310 542,-310 542,-310 496,-310 496,-310 490,-310 484,-304 484,-298 484,-298 484,-270 484,-270 484,-264 490,-258 496,-258"/>
<text text-anchor="middle" x="519" y="-298.8" font-family="Helvetica,sans-Serif" font-weight="bold" font-size="9.00">types</text>
</g>
<!-- src/artwork/GalaxyUno.webp -->
<g id="node1" class="node">
<title>src/artwork/GalaxyUno.webp</title>
<g id="a_node1"><a xlink:href="src/artwork/GalaxyUno.webp" xlink:title="GalaxyUno.webp">
<path fill="#ffffcc" stroke="black" d="M402.5,-596C402.5,-596 327.5,-596 327.5,-596 324.5,-596 321.5,-593 321.5,-590 321.5,-590 321.5,-584 321.5,-584 321.5,-581 324.5,-578 327.5,-578 327.5,-578 402.5,-578 402.5,-578 405.5,-578 408.5,-581 408.5,-584 408.5,-584 408.5,-590 408.5,-590 408.5,-593 405.5,-596 402.5,-596"/>
<text text-anchor="start" x="329.5" y="-584.8" font-family="Helvetica,sans-Serif" font-size="9.00">GalaxyUno.webp</text>
</a>
</g>
</g>
<!-- src/artwork/attack&#45;of&#45;the&#45;space&#45;nerds&#45;splash&#45;screen.webp -->
<g id="node2" class="node">
<title>src/artwork/attack&#45;of&#45;the&#45;space&#45;nerds&#45;splash&#45;screen.webp</title>
<g id="a_node2"><a xlink:href="src/artwork/attack-of-the-space-nerds-splash-screen.webp" xlink:title="attack&#45;of&#45;the&#45;space&#45;nerds&#45;splash&#45;screen.webp">
<path fill="#ffffcc" stroke="black" d="M462,-656C462,-656 268,-656 268,-656 265,-656 262,-653 262,-650 262,-650 262,-644 262,-644 262,-641 265,-638 268,-638 268,-638 462,-638 462,-638 465,-638 468,-641 468,-644 468,-644 468,-650 468,-650 468,-653 465,-656 462,-656"/>
<text text-anchor="start" x="270" y="-644.8" font-family="Helvetica,sans-Serif" font-size="9.00">attack&#45;of&#45;the&#45;space&#45;nerds&#45;splash&#45;screen.webp</text>
</a>
</g>
</g>
<!-- src/artwork/bigEars.png -->
<g id="node3" class="node">
<title>src/artwork/bigEars.png</title>
<g id="a_node3"><a xlink:href="src/artwork/bigEars.png" xlink:title="bigEars.png">
<path fill="#ffffcc" stroke="black" d="M392,-446C392,-446 338,-446 338,-446 335,-446 332,-443 332,-440 332,-440 332,-434 332,-434 332,-431 335,-428 338,-428 338,-428 392,-428 392,-428 395,-428 398,-431 398,-434 398,-434 398,-440 398,-440 398,-443 395,-446 392,-446"/>
<text text-anchor="start" x="340" y="-434.8" font-family="Helvetica,sans-Serif" font-size="9.00">bigEars.png</text>
</a>
</g>
</g>
<!-- src/artwork/foreground&#45;stars.webp -->
<g id="node4" class="node">
<title>src/artwork/foreground&#45;stars.webp</title>
<g id="a_node4"><a xlink:href="src/artwork/foreground-stars.webp" xlink:title="foreground&#45;stars.webp">
<path fill="#ffffcc" stroke="black" d="M413.5,-626C413.5,-626 316.5,-626 316.5,-626 313.5,-626 310.5,-623 310.5,-620 310.5,-620 310.5,-614 310.5,-614 310.5,-611 313.5,-608 316.5,-608 316.5,-608 413.5,-608 413.5,-608 416.5,-608 419.5,-611 419.5,-614 419.5,-614 419.5,-620 419.5,-620 419.5,-623 416.5,-626 413.5,-626"/>
<text text-anchor="start" x="318.5" y="-614.8" font-family="Helvetica,sans-Serif" font-size="9.00">foreground&#45;stars.webp</text>
</a>
</g>
</g>
<!-- src/artwork/laserGreen.png -->
<g id="node5" class="node">
<title>src/artwork/laserGreen.png</title>
<g id="a_node5"><a xlink:href="src/artwork/laserGreen.png" xlink:title="laserGreen.png">
<path fill="#ffffcc" stroke="black" d="M399,-386C399,-386 331,-386 331,-386 328,-386 325,-383 325,-380 325,-380 325,-374 325,-374 325,-371 328,-368 331,-368 331,-368 399,-368 399,-368 402,-368 405,-371 405,-374 405,-374 405,-380 405,-380 405,-383 402,-386 399,-386"/>
<text text-anchor="start" x="333" y="-374.8" font-family="Helvetica,sans-Serif" font-size="9.00">laserGreen.png</text>
</a>
</g>
</g>
<!-- src/artwork/laserGreenShot.png -->
<g id="node6" class="node">
<title>src/artwork/laserGreenShot.png</title>
<g id="a_node6"><a xlink:href="src/artwork/laserGreenShot.png" xlink:title="laserGreenShot.png">
<path fill="#ffffcc" stroke="black" d="M408.5,-476C408.5,-476 321.5,-476 321.5,-476 318.5,-476 315.5,-473 315.5,-470 315.5,-470 315.5,-464 315.5,-464 315.5,-461 318.5,-458 321.5,-458 321.5,-458 408.5,-458 408.5,-458 411.5,-458 414.5,-461 414.5,-464 414.5,-464 414.5,-470 414.5,-470 414.5,-473 411.5,-476 408.5,-476"/>
<text text-anchor="start" x="323.5" y="-464.8" font-family="Helvetica,sans-Serif" font-size="9.00">laserGreenShot.png</text>
</a>
</g>
</g>
<!-- src/artwork/player.png -->
<g id="node7" class="node">
<title>src/artwork/player.png</title>
<g id="a_node7"><a xlink:href="src/artwork/player.png" xlink:title="player.png">
<path fill="#ffffcc" stroke="black" d="M389,-566C389,-566 341,-566 341,-566 338,-566 335,-563 335,-560 335,-560 335,-554 335,-554 335,-551 338,-548 341,-548 341,-548 389,-548 389,-548 392,-548 395,-551 395,-554 395,-554 395,-560 395,-560 395,-563 392,-566 389,-566"/>
<text text-anchor="start" x="343" y="-554.8" font-family="Helvetica,sans-Serif" font-size="9.00">player.png</text>
</a>
</g>
</g>
<!-- src/artwork/playerLeft.png -->
<g id="node8" class="node">
<title>src/artwork/playerLeft.png</title>
<g id="a_node8"><a xlink:href="src/artwork/playerLeft.png" xlink:title="playerLeft.png">
<path fill="#ffffcc" stroke="black" d="M396.5,-506C396.5,-506 333.5,-506 333.5,-506 330.5,-506 327.5,-503 327.5,-500 327.5,-500 327.5,-494 327.5,-494 327.5,-491 330.5,-488 333.5,-488 333.5,-488 396.5,-488 396.5,-488 399.5,-488 402.5,-491 402.5,-494 402.5,-494 402.5,-500 402.5,-500 402.5,-503 399.5,-506 396.5,-506"/>
<text text-anchor="start" x="335.5" y="-494.8" font-family="Helvetica,sans-Serif" font-size="9.00">playerLeft.png</text>
</a>
</g>
</g>
<!-- src/artwork/playerRight.png -->
<g id="node9" class="node">
<title>src/artwork/playerRight.png</title>
<g id="a_node9"><a xlink:href="src/artwork/playerRight.png" xlink:title="playerRight.png">
<path fill="#ffffcc" stroke="black" d="M400,-536C400,-536 330,-536 330,-536 327,-536 324,-533 324,-530 324,-530 324,-524 324,-524 324,-521 327,-518 330,-518 330,-518 400,-518 400,-518 403,-518 406,-521 406,-524 406,-524 406,-530 406,-530 406,-533 403,-536 400,-536"/>
<text text-anchor="start" x="332" y="-524.8" font-family="Helvetica,sans-Serif" font-size="9.00">playerRight.png</text>
</a>
</g>
</g>
<!-- src/artwork/scaryGeek.png -->
<g id="node10" class="node">
<title>src/artwork/scaryGeek.png</title>
<g id="a_node10"><a xlink:href="src/artwork/scaryGeek.png" xlink:title="scaryGeek.png">
<path fill="#ffffcc" stroke="black" d="M398,-416C398,-416 332,-416 332,-416 329,-416 326,-413 326,-410 326,-410 326,-404 326,-404 326,-401 329,-398 332,-398 332,-398 398,-398 398,-398 401,-398 404,-401 404,-404 404,-404 404,-410 404,-410 404,-413 401,-416 398,-416"/>
<text text-anchor="start" x="334" y="-404.8" font-family="Helvetica,sans-Serif" font-size="9.00">scaryGeek.png</text>
</a>
</g>
</g>
<!-- src/classes/background.ts -->
<g id="node11" class="node">
<title>src/classes/background.ts</title>
<g id="a_node11"><a xlink:href="src/classes/background.ts" xlink:title="background.ts">
<path fill="#ddfeff" stroke="black" d="M236,-326C236,-326 174,-326 174,-326 171,-326 168,-323 168,-320 168,-320 168,-314 168,-314 168,-311 171,-308 174,-308 174,-308 236,-308 236,-308 239,-308 242,-311 242,-314 242,-314 242,-320 242,-320 242,-323 239,-326 236,-326"/>
<text text-anchor="start" x="176" y="-314.8" font-family="Helvetica,sans-Serif" font-size="9.00">background.ts</text>
</a>
</g>
</g>
<!-- src/classes/background.ts&#45;&gt;src/artwork/GalaxyUno.webp -->
<g id="edge2" class="edge">
<title>src/classes/background.ts&#45;&gt;src/artwork/GalaxyUno.webp</title>
<path fill="none" stroke="#000000" stroke-width="2" stroke-opacity="0.200000" d="M208.6,-326.24C215.73,-351.85 235.7,-426.07 246,-489 248.99,-507.29 241.16,-558.64 254,-572 268.78,-587.38 291.35,-592.26 312.2,-592.85"/>
<polygon fill="#000000" fill-opacity="0.200000" stroke="#000000" stroke-width="2" stroke-opacity="0.200000" points="311.98,-594.95 317.98,-592.86 311.98,-590.75 311.98,-594.95"/>
</g>
<!-- src/classes/background.ts&#45;&gt;src/artwork/foreground&#45;stars.webp -->
<g id="edge1" class="edge">
<title>src/classes/background.ts&#45;&gt;src/artwork/foreground&#45;stars.webp</title>
<path fill="none" stroke="#000000" stroke-width="2" stroke-opacity="0.200000" d="M208.69,-326.22C216.03,-351.81 236.5,-425.94 246,-489 247.88,-501.45 245.39,-592.82 254,-602 266.18,-614.99 283.89,-620.56 301.56,-622.37"/>
<polygon fill="#000000" fill-opacity="0.200000" stroke="#000000" stroke-width="2" stroke-opacity="0.200000" points="301.05,-624.44 307.18,-622.76 301.34,-620.25 301.05,-624.44"/>
</g>
<!-- src/types/index.ts -->
<g id="node12" class="node">
<title>src/types/index.ts</title>
<g id="a_node12"><a xlink:href="src/types/index.ts" xlink:title="index.ts">
<path fill="#ddfeff" stroke="black" d="M540,-284C540,-284 498,-284 498,-284 495,-284 492,-281 492,-278 492,-278 492,-272 492,-272 492,-269 495,-266 498,-266 498,-266 540,-266 540,-266 543,-266 546,-269 546,-272 546,-272 546,-278 546,-278 546,-281 543,-284 540,-284"/>
<text text-anchor="start" x="503" y="-272.8" font-family="Helvetica,sans-Serif" font-size="9.00">index.ts</text>
</a>
</g>
</g>
<!-- src/classes/background.ts&#45;&gt;src/types/index.ts -->
<g id="edge3" class="edge">
<title>src/classes/background.ts&#45;&gt;src/types/index.ts</title>
<path fill="none" stroke="#000000" stroke-width="2" stroke-opacity="0.200000" d="M242.4,-320.39C295.23,-324.08 395.65,-326.45 476,-301 484.17,-298.41 492.35,-293.89 499.3,-289.33"/>
<polygon fill="#000000" fill-opacity="0.200000" stroke="#000000" stroke-width="2" stroke-opacity="0.200000" points="500.09,-291.34 503.81,-286.19 497.69,-287.89 500.09,-291.34"/>
</g>
<!-- src/classes/layer.ts -->
<g id="node13" class="node">
<title>src/classes/layer.ts</title>
<g id="a_node13"><a xlink:href="src/classes/layer.ts" xlink:title="layer.ts">
<path fill="#ddfeff" stroke="black" d="M386,-248C386,-248 344,-248 344,-248 341,-248 338,-245 338,-242 338,-242 338,-236 338,-236 338,-233 341,-230 344,-230 344,-230 386,-230 386,-230 389,-230 392,-233 392,-236 392,-236 392,-242 392,-242 392,-245 389,-248 386,-248"/>
<text text-anchor="start" x="350" y="-236.8" font-family="Helvetica,sans-Serif" font-size="9.00">layer.ts</text>
</a>
</g>
</g>
<!-- src/classes/background.ts&#45;&gt;src/classes/layer.ts -->
<g id="edge4" class="edge">
<title>src/classes/background.ts&#45;&gt;src/classes/layer.ts</title>
<path fill="none" stroke="#000000" stroke-width="2" stroke-opacity="0.200000" d="M232.45,-307.64C237.01,-305.87 241.67,-303.96 246,-302 279.5,-286.85 316.7,-266.34 340.21,-252.9"/>
<polygon fill="#000000" fill-opacity="0.200000" stroke="#000000" stroke-width="2" stroke-opacity="0.200000" points="341.15,-254.78 345.3,-249.97 339.05,-251.14 341.15,-254.78"/>
</g>
<!-- src/classes/layer.ts&#45;&gt;src/types/index.ts -->
<g id="edge24" class="edge">
<title>src/classes/layer.ts&#45;&gt;src/types/index.ts</title>
<path fill="none" stroke="#000000" stroke-width="2" stroke-opacity="0.200000" d="M392.18,-241.47C414.72,-244.03 447.95,-248.83 476,-257 480.76,-258.39 485.7,-260.17 490.45,-262.07"/>
<polygon fill="#000000" fill-opacity="0.200000" stroke="#000000" stroke-width="2" stroke-opacity="0.200000" points="489.57,-263.98 495.92,-264.39 491.21,-260.11 489.57,-263.98"/>
</g>
<!-- src/classes/enemy.ts -->
<g id="node14" class="node">
<title>src/classes/enemy.ts</title>
<g id="a_node14"><a xlink:href="src/classes/enemy.ts" xlink:title="enemy.ts">
<path fill="#ddfeff" stroke="black" d="M226,-206C226,-206 184,-206 184,-206 181,-206 178,-203 178,-200 178,-200 178,-194 178,-194 178,-191 181,-188 184,-188 184,-188 226,-188 226,-188 229,-188 232,-191 232,-194 232,-194 232,-200 232,-200 232,-203 229,-206 226,-206"/>
<text text-anchor="start" x="186.5" y="-194.8" font-family="Helvetica,sans-Serif" font-size="9.00">enemy.ts</text>
</a>
</g>
</g>
<!-- src/classes/enemy.ts&#45;&gt;src/artwork/bigEars.png -->
<g id="edge5" class="edge">
<title>src/classes/enemy.ts&#45;&gt;src/artwork/bigEars.png</title>
<path fill="none" stroke="#000000" stroke-width="2" stroke-opacity="0.200000" d="M232.21,-201.87C237.58,-204.08 242.61,-207.31 246,-212 259.66,-230.94 238.31,-404.7 254,-422 270.88,-440.61 299.09,-444.16 322.71,-443.16"/>
<polygon fill="#000000" fill-opacity="0.200000" stroke="#000000" stroke-width="2" stroke-opacity="0.200000" points="322.64,-445.27 328.49,-442.77 322.36,-441.07 322.64,-445.27"/>
</g>
<!-- src/classes/enemy.ts&#45;&gt;src/artwork/laserGreenShot.png -->
<g id="edge6" class="edge">
<title>src/classes/enemy.ts&#45;&gt;src/artwork/laserGreenShot.png</title>
<path fill="none" stroke="#000000" stroke-width="2" stroke-opacity="0.200000" d="M232.23,-201.86C237.59,-204.07 242.63,-207.3 246,-212 261.56,-233.67 236.12,-432.19 254,-452 267.05,-466.45 286.93,-471.84 306.22,-473.06"/>
<polygon fill="#000000" fill-opacity="0.200000" stroke="#000000" stroke-width="2" stroke-opacity="0.200000" points="305.92,-475.15 311.99,-473.24 306.06,-470.95 305.92,-475.15"/>
</g>
<!-- src/classes/enemy.ts&#45;&gt;src/artwork/scaryGeek.png -->
<g id="edge7" class="edge">
<title>src/classes/enemy.ts&#45;&gt;src/artwork/scaryGeek.png</title>
<path fill="none" stroke="#000000" stroke-width="2" stroke-opacity="0.200000" d="M232.19,-201.88C237.56,-204.1 242.6,-207.32 246,-212 257.77,-228.2 240.5,-377.21 254,-392 269.47,-408.95 294.36,-413.38 316.55,-413.26"/>
<polygon fill="#000000" fill-opacity="0.200000" stroke="#000000" stroke-width="2" stroke-opacity="0.200000" points="316.58,-415.36 322.51,-413.08 316.44,-411.17 316.58,-415.36"/>
</g>
<!-- src/classes/enemy.ts&#45;&gt;src/types/index.ts -->
<g id="edge10" class="edge">
<title>src/classes/enemy.ts&#45;&gt;src/types/index.ts</title>
<path fill="none" stroke="#000000" stroke-width="2" stroke-opacity="0.200000" d="M232.25,-202.32C237.48,-204.52 242.45,-207.62 246,-212 261,-230.51 236.24,-249.12 254,-265 270.69,-279.92 415.47,-277.9 483.26,-276.1"/>
<polygon fill="#000000" fill-opacity="0.200000" stroke="#000000" stroke-width="2" stroke-opacity="0.200000" points="482.94,-278.21 488.88,-275.94 482.82,-274.01 482.94,-278.21"/>
</g>
<!-- src/lib/easing.ts -->
<g id="node15" class="node">
<title>src/lib/easing.ts</title>
<g id="a_node15"><a xlink:href="src/lib/easing.ts" xlink:title="easing.ts">
<path fill="#ddfeff" stroke="black" d="M386,-72C386,-72 344,-72 344,-72 341,-72 338,-69 338,-66 338,-66 338,-60 338,-60 338,-57 341,-54 344,-54 344,-54 386,-54 386,-54 389,-54 392,-57 392,-60 392,-60 392,-66 392,-66 392,-69 389,-72 386,-72"/>
<text text-anchor="start" x="346.5" y="-60.8" font-family="Helvetica,sans-Serif" font-size="9.00">easing.ts</text>
</a>
</g>
</g>
<!-- src/classes/enemy.ts&#45;&gt;src/lib/easing.ts -->
<g id="edge8" class="edge">
<title>src/classes/enemy.ts&#45;&gt;src/lib/easing.ts</title>
<path fill="none" stroke="#000000" stroke-width="2" stroke-opacity="0.200000" d="M232.41,-191.8C237.64,-189.6 242.56,-186.47 246,-182 267.54,-154.04 232.32,-130.85 254,-103 271.79,-80.15 303.86,-70.34 328.8,-66.14"/>
<polygon fill="#000000" fill-opacity="0.200000" stroke="#000000" stroke-width="2" stroke-opacity="0.200000" points="329,-68.23 334.63,-65.28 328.38,-64.08 329,-68.23"/>
</g>
<!-- src/lib/util.ts -->
<g id="node16" class="node">
<title>src/lib/util.ts</title>
<g id="a_node16"><a xlink:href="src/lib/util.ts" xlink:title="util.ts">
<path fill="#ddfeff" stroke="black" d="M386,-42C386,-42 344,-42 344,-42 341,-42 338,-39 338,-36 338,-36 338,-30 338,-30 338,-27 341,-24 344,-24 344,-24 386,-24 386,-24 389,-24 392,-27 392,-30 392,-30 392,-36 392,-36 392,-39 389,-42 386,-42"/>
<text text-anchor="start" x="354" y="-30.8" font-family="Helvetica,sans-Serif" font-size="9.00">util.ts</text>
</a>
</g>
</g>
<!-- src/classes/enemy.ts&#45;&gt;src/lib/util.ts -->
<g id="edge9" class="edge">
<title>src/classes/enemy.ts&#45;&gt;src/lib/util.ts</title>
<path fill="none" stroke="#000000" stroke-width="2" stroke-opacity="0.200000" d="M232.14,-192.08C237.51,-189.87 242.56,-186.65 246,-182 263.71,-158 233.72,-69.88 254,-48 272.55,-27.98 304.24,-25.52 328.85,-27.32"/>
<polygon fill="#000000" fill-opacity="0.200000" stroke="#000000" stroke-width="2" stroke-opacity="0.200000" points="328.38,-29.38 334.55,-27.86 328.78,-25.2 328.38,-29.38"/>
</g>
<!-- src/classes/sfx.ts -->
<g id="node17" class="node">
<title>src/classes/sfx.ts</title>
<g id="a_node17"><a xlink:href="src/classes/sfx.ts" xlink:title="sfx.ts">
<path fill="#ddfeff" stroke="black" d="M386,-218C386,-218 344,-218 344,-218 341,-218 338,-215 338,-212 338,-212 338,-206 338,-206 338,-203 341,-200 344,-200 344,-200 386,-200 386,-200 389,-200 392,-203 392,-206 392,-206 392,-212 392,-212 392,-215 389,-218 386,-218"/>
<text text-anchor="start" x="354.5" y="-206.8" font-family="Helvetica,sans-Serif" font-size="9.00">sfx.ts</text>
</a>
</g>
</g>
<!-- src/classes/enemy.ts&#45;&gt;src/classes/sfx.ts -->
<g id="edge11" class="edge">
<title>src/classes/enemy.ts&#45;&gt;src/classes/sfx.ts</title>
<path fill="none" stroke="#000000" stroke-width="2" stroke-opacity="0.200000" d="M232.45,-199.01C258.96,-201.02 299.92,-204.13 329.09,-206.35"/>
<polygon fill="#000000" fill-opacity="0.200000" stroke="#000000" stroke-width="2" stroke-opacity="0.200000" points="328.57,-208.42 334.71,-206.78 328.89,-204.23 328.57,-208.42"/>
</g>
<!-- src/classes/game.ts -->
<g id="node18" class="node">
<title>src/classes/game.ts</title>
<g id="a_node18"><a xlink:href="src/classes/game.ts" xlink:title="game.ts">
<path fill="#ddfeff" stroke="black" d="M145,-236C145,-236 103,-236 103,-236 100,-236 97,-233 97,-230 97,-230 97,-224 97,-224 97,-221 100,-218 103,-218 103,-218 145,-218 145,-218 148,-218 151,-221 151,-224 151,-224 151,-230 151,-230 151,-233 148,-236 145,-236"/>
<text text-anchor="start" x="107.5" y="-224.8" font-family="Helvetica,sans-Serif" font-size="9.00">game.ts</text>
</a>
</g>
</g>
<!-- src/classes/game.ts&#45;&gt;src/artwork/attack&#45;of&#45;the&#45;space&#45;nerds&#45;splash&#45;screen.webp -->
<g id="edge12" class="edge">
<title>src/classes/game.ts&#45;&gt;src/artwork/attack&#45;of&#45;the&#45;space&#45;nerds&#45;splash&#45;screen.webp</title>
<path fill="none" stroke="#000000" stroke-width="2" stroke-opacity="0.200000" d="M147.72,-236.43C148.94,-237.5 150.06,-238.69 151,-240 175.12,-273.52 155.15,-291.66 164,-332 193.82,-467.97 148.2,-541.53 254,-632 254.31,-632.27 254.62,-632.53 254.94,-632.79"/>
<polygon fill="#000000" fill-opacity="0.200000" stroke="#000000" stroke-width="2" stroke-opacity="0.200000" points="253.34,-634.22 259.44,-636 255.78,-630.8 253.34,-634.22"/>
</g>
<!-- src/classes/game.ts&#45;&gt;src/classes/background.ts -->
<g id="edge15" class="edge">
<title>src/classes/game.ts&#45;&gt;src/classes/background.ts</title>
<path fill="none" stroke="#000000" stroke-width="2" stroke-opacity="0.200000" d="M147.14,-236.11C148.58,-237.27 149.89,-238.56 151,-240 166.65,-260.29 149.39,-277.31 164.8,-300.49"/>
<polygon fill="#000000" fill-opacity="0.200000" stroke="#000000" stroke-width="2" stroke-opacity="0.200000" points="163.13,-301.77 168.5,-305.17 166.42,-299.16 163.13,-301.77"/>
</g>
<!-- src/classes/game.ts&#45;&gt;src/types/index.ts -->
<g id="edge14" class="edge">
<title>src/classes/game.ts&#45;&gt;src/types/index.ts</title>
<path fill="none" stroke="#000000" stroke-width="2" stroke-opacity="0.200000" d="M147.85,-236.34C149.04,-237.43 150.11,-238.65 151,-240 165.65,-262.33 157.81,-454.02 164,-480 187.06,-576.8 170.69,-630.59 254,-685 264.33,-691.74 466.85,-693.26 476,-685 505.48,-658.38 515.42,-369.52 517.53,-293.33"/>
<polygon fill="#000000" fill-opacity="0.200000" stroke="#000000" stroke-width="2" stroke-opacity="0.200000" points="519.63,-293.48 517.69,-287.43 515.43,-293.37 519.63,-293.48"/>
</g>
<!-- src/classes/game.ts&#45;&gt;src/classes/enemy.ts -->
<g id="edge16" class="edge">
<title>src/classes/game.ts&#45;&gt;src/classes/enemy.ts</title>
<path fill="none" stroke="#000000" stroke-width="2" stroke-opacity="0.200000" d="M149.33,-217.61C154.19,-215.74 159.25,-213.8 164,-212 166.06,-211.22 168.19,-210.41 170.33,-209.6"/>
<polygon fill="#000000" fill-opacity="0.200000" stroke="#000000" stroke-width="2" stroke-opacity="0.200000" points="170.89,-211.64 175.76,-207.56 169.41,-207.71 170.89,-211.64"/>
</g>
<!-- src/classes/game.ts&#45;&gt;src/lib/util.ts -->
<g id="edge13" class="edge">
<title>src/classes/game.ts&#45;&gt;src/lib/util.ts</title>
<path fill="none" stroke="#000000" stroke-width="2" stroke-opacity="0.200000" d="M147.74,-217.59C148.96,-216.51 150.07,-215.32 151,-214 178.37,-175.22 133.68,-144.52 164,-108 188.42,-78.58 220.01,-110.04 246,-82 256.55,-70.61 242.51,-58.44 254,-48 273.98,-29.84 305.04,-27.06 329.06,-28.27"/>
<polygon fill="#000000" fill-opacity="0.200000" stroke="#000000" stroke-width="2" stroke-opacity="0.200000" points="328.74,-30.35 334.87,-28.69 329.04,-26.17 328.74,-30.35"/>
</g>
<!-- src/classes/inputHandler.ts -->
<g id="node19" class="node">
<title>src/classes/inputHandler.ts</title>
<g id="a_node19"><a xlink:href="src/classes/inputHandler.ts" xlink:title="inputHandler.ts">
<path fill="#ddfeff" stroke="black" d="M238.5,-266C238.5,-266 171.5,-266 171.5,-266 168.5,-266 165.5,-263 165.5,-260 165.5,-260 165.5,-254 165.5,-254 165.5,-251 168.5,-248 171.5,-248 171.5,-248 238.5,-248 238.5,-248 241.5,-248 244.5,-251 244.5,-254 244.5,-254 244.5,-260 244.5,-260 244.5,-263 241.5,-266 238.5,-266"/>
<text text-anchor="start" x="173.5" y="-254.8" font-family="Helvetica,sans-Serif" font-size="9.00">inputHandler.ts</text>
</a>
</g>
</g>
<!-- src/classes/game.ts&#45;&gt;src/classes/inputHandler.ts -->
<g id="edge17" class="edge">
<title>src/classes/game.ts&#45;&gt;src/classes/inputHandler.ts</title>
<path fill="none" stroke="#000000" stroke-width="2" stroke-opacity="0.200000" d="M149.33,-236.39C154.19,-238.26 159.25,-240.2 164,-242 166.06,-242.78 168.19,-243.59 170.33,-244.4"/>
<polygon fill="#000000" fill-opacity="0.200000" stroke="#000000" stroke-width="2" stroke-opacity="0.200000" points="169.41,-246.29 175.76,-246.44 170.89,-242.36 169.41,-246.29"/>
</g>
<!-- src/classes/particle.ts -->
<g id="node20" class="node">
<title>src/classes/particle.ts</title>
<g id="a_node20"><a xlink:href="src/classes/particle.ts" xlink:title="particle.ts">
<path fill="#ddfeff" stroke="black" d="M227,-132C227,-132 183,-132 183,-132 180,-132 177,-129 177,-126 177,-126 177,-120 177,-120 177,-117 180,-114 183,-114 183,-114 227,-114 227,-114 230,-114 233,-117 233,-120 233,-120 233,-126 233,-126 233,-129 230,-132 227,-132"/>
<text text-anchor="start" x="185" y="-120.8" font-family="Helvetica,sans-Serif" font-size="9.00">particle.ts</text>
</a>
</g>
</g>
<!-- src/classes/game.ts&#45;&gt;src/classes/particle.ts -->
<g id="edge18" class="edge">
<title>src/classes/game.ts&#45;&gt;src/classes/particle.ts</title>
<path fill="none" stroke="#000000" stroke-width="2" stroke-opacity="0.200000" d="M147.66,-217.53C148.9,-216.47 150.03,-215.29 151,-214 170.73,-187.6 143.74,-166.99 164,-141 165.54,-139.03 167.34,-137.27 169.31,-135.69"/>
<polygon fill="#000000" fill-opacity="0.200000" stroke="#000000" stroke-width="2" stroke-opacity="0.200000" points="170.08,-137.7 173.98,-132.68 167.8,-134.17 170.08,-137.7"/>
</g>
<!-- src/classes/player.ts -->
<g id="node21" class="node">
<title>src/classes/player.ts</title>
<g id="a_node21"><a xlink:href="src/classes/player.ts" xlink:title="player.ts">
<path fill="#ddfeff" stroke="black" d="M226,-236C226,-236 184,-236 184,-236 181,-236 178,-233 178,-230 178,-230 178,-224 178,-224 178,-221 181,-218 184,-218 184,-218 226,-218 226,-218 229,-218 232,-221 232,-224 232,-224 232,-230 232,-230 232,-233 229,-236 226,-236"/>
<text text-anchor="start" x="187.5" y="-224.8" font-family="Helvetica,sans-Serif" font-size="9.00">player.ts</text>
</a>
</g>
</g>
<!-- src/classes/game.ts&#45;&gt;src/classes/player.ts -->
<g id="edge19" class="edge">
<title>src/classes/game.ts&#45;&gt;src/classes/player.ts</title>
<path fill="none" stroke="#000000" stroke-width="2" stroke-opacity="0.200000" d="M151.31,-227C156.84,-227 162.77,-227 168.58,-227"/>
<polygon fill="#000000" fill-opacity="0.200000" stroke="#000000" stroke-width="2" stroke-opacity="0.200000" points="168.51,-229.1 174.51,-227 168.51,-224.9 168.51,-229.1"/>
</g>
<!-- src/classes/projectile.ts -->
<g id="node22" class="node">
<title>src/classes/projectile.ts</title>
<g id="a_node22"><a xlink:href="src/classes/projectile.ts" xlink:title="projectile.ts">
<path fill="#ddfeff" stroke="black" d="M390.5,-188C390.5,-188 339.5,-188 339.5,-188 336.5,-188 333.5,-185 333.5,-182 333.5,-182 333.5,-176 333.5,-176 333.5,-173 336.5,-170 339.5,-170 339.5,-170 390.5,-170 390.5,-170 393.5,-170 396.5,-173 396.5,-176 396.5,-176 396.5,-182 396.5,-182 396.5,-185 393.5,-188 390.5,-188"/>
<text text-anchor="start" x="341.5" y="-176.8" font-family="Helvetica,sans-Serif" font-size="9.00">projectile.ts</text>
</a>
</g>
</g>
<!-- src/classes/game.ts&#45;&gt;src/classes/projectile.ts -->
<g id="edge20" class="edge">
<title>src/classes/game.ts&#45;&gt;src/classes/projectile.ts</title>
<path fill="none" stroke="#000000" stroke-width="2" stroke-opacity="0.200000" d="M147.14,-217.89C148.58,-216.73 149.89,-215.44 151,-214 168.19,-191.7 142.14,-169.75 164,-152 187.98,-132.53 273.78,-152.68 324.89,-167.12"/>
<polygon fill="#000000" fill-opacity="0.200000" stroke="#000000" stroke-width="2" stroke-opacity="0.200000" points="324.13,-169.09 330.48,-168.72 325.29,-165.05 324.13,-169.09"/>
</g>
<!-- src/classes/splashScreen.ts -->
<g id="node23" class="node">
<title>src/classes/splashScreen.ts</title>
<g id="a_node23"><a xlink:href="src/classes/splashScreen.ts" xlink:title="splashScreen.ts">
<path fill="#ddfeff" stroke="black" d="M240,-176C240,-176 170,-176 170,-176 167,-176 164,-173 164,-170 164,-170 164,-164 164,-164 164,-161 167,-158 170,-158 170,-158 240,-158 240,-158 243,-158 246,-161 246,-164 246,-164 246,-170 246,-170 246,-173 243,-176 240,-176"/>
<text text-anchor="start" x="172" y="-164.8" font-family="Helvetica,sans-Serif" font-size="9.00">splashScreen.ts</text>
</a>
</g>
</g>
<!-- src/classes/game.ts&#45;&gt;src/classes/splashScreen.ts -->
<g id="edge21" class="edge">
<title>src/classes/game.ts&#45;&gt;src/classes/splashScreen.ts</title>
<path fill="none" stroke="#000000" stroke-width="2" stroke-opacity="0.200000" d="M146.87,-217.65C148.37,-216.55 149.77,-215.33 151,-214 161.42,-202.73 153,-192.71 164,-182 164.14,-181.86 164.28,-181.73 164.42,-181.6"/>
<polygon fill="#000000" fill-opacity="0.200000" stroke="#000000" stroke-width="2" stroke-opacity="0.200000" points="165.52,-183.4 169.12,-178.16 163.03,-180.01 165.52,-183.4"/>
</g>
<!-- src/classes/ui.ts -->
<g id="node24" class="node">
<title>src/classes/ui.ts</title>
<g id="a_node24"><a xlink:href="src/classes/ui.ts" xlink:title="ui.ts">
<path fill="#ddfeff" stroke="black" d="M226,-296C226,-296 184,-296 184,-296 181,-296 178,-293 178,-290 178,-290 178,-284 178,-284 178,-281 181,-278 184,-278 184,-278 226,-278 226,-278 229,-278 232,-281 232,-284 232,-284 232,-290 232,-290 232,-293 229,-296 226,-296"/>
<text text-anchor="start" x="196.5" y="-284.8" font-family="Helvetica,sans-Serif" font-size="9.00">ui.ts</text>
</a>
</g>
</g>
<!-- src/classes/game.ts&#45;&gt;src/classes/ui.ts -->
<g id="edge22" class="edge">
<title>src/classes/game.ts&#45;&gt;src/classes/ui.ts</title>
<path fill="none" stroke="#000000" stroke-width="2" stroke-opacity="0.200000" d="M146.87,-236.35C148.37,-237.45 149.77,-238.67 151,-240 161.42,-251.27 153,-261.29 164,-272 165.79,-273.75 167.81,-275.29 169.96,-276.66"/>
<polygon fill="#000000" fill-opacity="0.200000" stroke="#000000" stroke-width="2" stroke-opacity="0.200000" points="168.67,-278.36 174.96,-279.27 170.61,-274.63 168.67,-278.36"/>
</g>
<!-- src/classes/inputHandler.ts&#45;&gt;src/types/index.ts -->
<g id="edge23" class="edge">
<title>src/classes/inputHandler.ts&#45;&gt;src/types/index.ts</title>
<path fill="none" stroke="#000000" stroke-width="2" stroke-opacity="0.200000" d="M234.99,-266.44C238.8,-268.09 242.56,-269.95 246,-272 250.06,-274.42 249.58,-277.34 254,-279 294.9,-294.37 421.27,-284.63 483.14,-278.66"/>
<polygon fill="#000000" fill-opacity="0.200000" stroke="#000000" stroke-width="2" stroke-opacity="0.200000" points="483.01,-280.78 488.78,-278.1 482.6,-276.6 483.01,-280.78"/>
</g>
<!-- src/classes/particle.ts&#45;&gt;src/types/index.ts -->
<g id="edge26" class="edge">
<title>src/classes/particle.ts&#45;&gt;src/types/index.ts</title>
<path fill="none" stroke="#000000" stroke-width="2" stroke-opacity="0.200000" d="M233.34,-120.72C294.31,-116.22 438.95,-108.98 476,-138 512.6,-166.67 518.15,-226.48 518.47,-256.7"/>
<polygon fill="#000000" fill-opacity="0.200000" stroke="#000000" stroke-width="2" stroke-opacity="0.200000" points="516.37,-256.68 518.44,-262.69 520.57,-256.71 516.37,-256.68"/>
</g>
<!-- src/classes/particle.ts&#45;&gt;src/lib/util.ts -->
<g id="edge25" class="edge">
<title>src/classes/particle.ts&#45;&gt;src/lib/util.ts</title>
<path fill="none" stroke="#000000" stroke-width="2" stroke-opacity="0.200000" d="M222.82,-113.52C231.08,-108.01 240.42,-100.31 246,-91 255.99,-74.33 239.93,-61.41 254,-48 273.55,-29.37 304.65,-26.64 328.8,-27.99"/>
<polygon fill="#000000" fill-opacity="0.200000" stroke="#000000" stroke-width="2" stroke-opacity="0.200000" points="328.51,-30.07 334.66,-28.44 328.84,-25.88 328.51,-30.07"/>
</g>
<!-- src/classes/player.ts&#45;&gt;src/artwork/player.png -->
<g id="edge27" class="edge">
<title>src/classes/player.ts&#45;&gt;src/artwork/player.png</title>
<path fill="none" stroke="#000000" stroke-width="2" stroke-opacity="0.200000" d="M232.25,-231.84C237.62,-234.06 242.64,-237.29 246,-242 265.36,-269.15 231.74,-517.17 254,-542 271.57,-561.6 301.69,-564.55 325.98,-563.05"/>
<polygon fill="#000000" fill-opacity="0.200000" stroke="#000000" stroke-width="2" stroke-opacity="0.200000" points="326.15,-565.14 331.95,-562.54 325.79,-560.96 326.15,-565.14"/>
</g>
<!-- src/classes/player.ts&#45;&gt;src/artwork/playerLeft.png -->
<g id="edge28" class="edge">
<title>src/classes/player.ts&#45;&gt;src/artwork/playerLeft.png</title>
<path fill="none" stroke="#000000" stroke-width="2" stroke-opacity="0.200000" d="M232.23,-231.86C237.59,-234.07 242.63,-237.3 246,-242 261.56,-263.67 236.12,-462.19 254,-482 269.79,-499.49 295.59,-503.7 318.24,-503.32"/>
<polygon fill="#000000" fill-opacity="0.200000" stroke="#000000" stroke-width="2" stroke-opacity="0.200000" points="318.13,-505.42 324.03,-503.07 317.95,-501.23 318.13,-505.42"/>
</g>
<!-- src/classes/player.ts&#45;&gt;src/artwork/playerRight.png -->
<g id="edge29" class="edge">
<title>src/classes/player.ts&#45;&gt;src/artwork/playerRight.png</title>
<path fill="none" stroke="#000000" stroke-width="2" stroke-opacity="0.200000" d="M232.24,-231.85C237.61,-234.06 242.63,-237.29 246,-242 263.46,-266.41 233.93,-489.68 254,-512 268.95,-528.63 292.94,-533.26 314.71,-533.36"/>
<polygon fill="#000000" fill-opacity="0.200000" stroke="#000000" stroke-width="2" stroke-opacity="0.200000" points="314.57,-535.47 320.53,-533.23 314.48,-531.27 314.57,-535.47"/>
</g>
<!-- src/classes/player.ts&#45;&gt;src/types/index.ts -->
<g id="edge30" class="edge">
<title>src/classes/player.ts&#45;&gt;src/types/index.ts</title>
<path fill="none" stroke="#000000" stroke-width="2" stroke-opacity="0.200000" d="M232.2,-221.64C237.44,-219.44 242.42,-216.35 246,-212 259.74,-195.3 237.5,-177.98 254,-164 291.64,-132.11 435.41,-135.96 476,-164 506.52,-185.08 514.88,-231.39 517.16,-257.04"/>
<polygon fill="#000000" fill-opacity="0.200000" stroke="#000000" stroke-width="2" stroke-opacity="0.200000" points="515.05,-256.89 517.56,-262.73 519.24,-256.6 515.05,-256.89"/>
</g>
<!-- src/classes/player.ts&#45;&gt;src/classes/sfx.ts -->
<g id="edge32" class="edge">
<title>src/classes/player.ts&#45;&gt;src/classes/sfx.ts</title>
<path fill="none" stroke="#000000" stroke-width="2" stroke-opacity="0.200000" d="M232.45,-223.99C258.96,-220.97 299.92,-216.3 329.09,-212.98"/>
<polygon fill="#000000" fill-opacity="0.200000" stroke="#000000" stroke-width="2" stroke-opacity="0.200000" points="329,-215.1 334.72,-212.34 328.52,-210.93 329,-215.1"/>
</g>
<!-- src/classes/player.ts&#45;&gt;src/classes/projectile.ts -->
<g id="edge31" class="edge">
<title>src/classes/player.ts&#45;&gt;src/classes/projectile.ts</title>
<path fill="none" stroke="#000000" stroke-width="2" stroke-opacity="0.200000" d="M232.26,-220.57C237.25,-218.45 242.11,-215.66 246,-212 252.37,-206 247,-199.26 254,-194 274,-178.98 301.99,-175.33 324.73,-175.39"/>
<polygon fill="#000000" fill-opacity="0.200000" stroke="#000000" stroke-width="2" stroke-opacity="0.200000" points="324.41,-177.48 330.45,-175.52 324.5,-173.28 324.41,-177.48"/>
</g>
<!-- src/classes/projectile.ts&#45;&gt;src/artwork/laserGreen.png -->
<g id="edge33" class="edge">
<title>src/classes/projectile.ts&#45;&gt;src/artwork/laserGreen.png</title>
<path fill="none" stroke="#000000" stroke-width="2" stroke-opacity="0.200000" d="M333.16,-172.61C302.51,-168.48 259.47,-168.73 250,-200 245.2,-215.85 245.2,-333.15 250,-349 250.93,-352.07 251.34,-353.22 254,-355 272.07,-367.08 295.25,-372.83 315.75,-375.46"/>
<polygon fill="#000000" fill-opacity="0.200000" stroke="#000000" stroke-width="2" stroke-opacity="0.200000" points="315.45,-377.54 321.64,-376.1 315.91,-373.36 315.45,-377.54"/>
</g>
<!-- src/classes/projectile.ts&#45;&gt;src/types/index.ts -->
<g id="edge34" class="edge">
<title>src/classes/projectile.ts&#45;&gt;src/types/index.ts</title>
<path fill="none" stroke="#000000" stroke-width="2" stroke-opacity="0.200000" d="M396.74,-175.95C420.46,-175.19 453,-177.79 476,-194 497.27,-208.99 508.53,-238.09 513.88,-257.02"/>
<polygon fill="#000000" fill-opacity="0.200000" stroke="#000000" stroke-width="2" stroke-opacity="0.200000" points="511.81,-257.41 515.34,-262.7 515.88,-256.36 511.81,-257.41"/>
</g>
<!-- src/classes/splashScreen.ts&#45;&gt;src/types/index.ts -->
<g id="edge35" class="edge">
<title>src/classes/splashScreen.ts&#45;&gt;src/types/index.ts</title>
<path fill="none" stroke="#000000" stroke-width="2" stroke-opacity="0.200000" d="M239.85,-176.27C242.17,-177.88 244.27,-179.78 246,-182 255.89,-194.7 242.3,-242.94 254,-254 271.96,-270.97 451.51,-262.74 476,-266 478.34,-266.31 480.75,-266.69 483.17,-267.1"/>
<polygon fill="#000000" fill-opacity="0.200000" stroke="#000000" stroke-width="2" stroke-opacity="0.200000" points="482.64,-269.14 488.92,-268.18 483.42,-265.01 482.64,-269.14"/>
</g>
<!-- src/classes/ui.ts&#45;&gt;src/artwork/player.png -->
<g id="edge36" class="edge">
<title>src/classes/ui.ts&#45;&gt;src/artwork/player.png</title>
<path fill="none" stroke="#000000" stroke-width="2" stroke-opacity="0.200000" d="M232.23,-291.86C237.59,-294.07 242.63,-297.3 246,-302 261.56,-323.67 236.12,-522.19 254,-542 271.52,-561.41 301.37,-564.46 325.55,-563.04"/>
<polygon fill="#000000" fill-opacity="0.200000" stroke="#000000" stroke-width="2" stroke-opacity="0.200000" points="325.68,-565.14 331.49,-562.55 325.34,-560.95 325.68,-565.14"/>
</g>
<!-- src/classes/ui.ts&#45;&gt;src/types/index.ts -->
<g id="edge37" class="edge">
<title>src/classes/ui.ts&#45;&gt;src/types/index.ts</title>
<path fill="none" stroke="#000000" stroke-width="2" stroke-opacity="0.200000" d="M232.41,-291.45C281.16,-298.8 388.28,-311.01 476,-293 481.51,-291.87 487.19,-289.99 492.52,-287.85"/>
<polygon fill="#000000" fill-opacity="0.200000" stroke="#000000" stroke-width="2" stroke-opacity="0.200000" points="493.09,-289.89 497.76,-285.57 491.42,-286.04 493.09,-289.89"/>
</g>
<!-- src/main.ts -->
<g id="node25" class="node">
<title>src/main.ts</title>
<g id="a_node25"><a xlink:href="src/main.ts" xlink:title="main.ts">
<path fill="#ddfeff" stroke="black" d="M69.5,-236C69.5,-236 27.5,-236 27.5,-236 24.5,-236 21.5,-233 21.5,-230 21.5,-230 21.5,-224 21.5,-224 21.5,-221 24.5,-218 27.5,-218 27.5,-218 69.5,-218 69.5,-218 72.5,-218 75.5,-221 75.5,-224 75.5,-224 75.5,-230 75.5,-230 75.5,-233 72.5,-236 69.5,-236"/>
<text text-anchor="start" x="33.5" y="-224.8" font-family="Helvetica,sans-Serif" font-size="9.00">main.ts</text>
</a>
</g>
</g>
<!-- src/main.ts&#45;&gt;src/types/index.ts -->
<g id="edge40" class="edge">
<title>src/main.ts&#45;&gt;src/types/index.ts</title>
<path fill="none" stroke="#000000" stroke-width="2" stroke-opacity="0.200000" d="M49.68,-236.19C51.37,-293.68 69.05,-604.37 254,-691 343.35,-732.85 402.81,-757.17 476,-691 505.95,-663.92 515.57,-369.64 517.57,-293.11"/>
<polygon fill="#000000" fill-opacity="0.200000" stroke="#000000" stroke-width="2" stroke-opacity="0.200000" points="519.67,-293.23 517.72,-287.18 515.47,-293.13 519.67,-293.23"/>
</g>
<!-- src/main.ts&#45;&gt;src/lib/util.ts -->
<g id="edge39" class="edge">
<title>src/main.ts&#45;&gt;src/lib/util.ts</title>
<path fill="none" stroke="#000000" stroke-width="2" stroke-opacity="0.200000" d="M57.19,-217.72C64.65,-208.16 75.6,-192.5 81,-177 86.44,-161.38 78.62,-115.88 89,-103 147.37,-30.58 269.23,-26.91 329.17,-29.97"/>
<polygon fill="#000000" fill-opacity="0.200000" stroke="#000000" stroke-width="2" stroke-opacity="0.200000" points="328.76,-32.05 334.88,-30.31 329.01,-27.85 328.76,-32.05"/>
</g>
<!-- src/main.ts&#45;&gt;src/classes/game.ts -->
<g id="edge38" class="edge">
<title>src/main.ts&#45;&gt;src/classes/game.ts</title>
<path fill="none" stroke="#000000" stroke-width="2" stroke-opacity="0.200000" d="M75.62,-227C79.63,-227 83.82,-227 87.98,-227"/>
<polygon fill="#000000" fill-opacity="0.200000" stroke="#000000" stroke-width="2" stroke-opacity="0.200000" points="87.94,-229.1 93.94,-227 87.94,-224.9 87.94,-229.1"/>
</g>
<!-- src/vite&#45;env.d.ts -->
<g id="node26" class="node">
<title>src/vite&#45;env.d.ts</title>
<g id="a_node26"><a xlink:href="src/vite-env.d.ts" xlink:title="vite&#45;env.d.ts">
<path fill="#ccffcc" stroke="black" d="M75,-171C75,-171 22,-171 22,-171 19,-171 16,-168 16,-165 16,-165 16,-159 16,-159 16,-156 19,-153 22,-153 22,-153 75,-153 75,-153 78,-153 81,-156 81,-159 81,-159 81,-165 81,-165 81,-168 78,-171 75,-171"/>
<text text-anchor="start" x="24" y="-159.8" font-family="Helvetica,sans-Serif" font-size="9.00">vite&#45;env.d.ts</text>
</a>
</g>
</g>
<!-- src/zzfx.d.ts -->
<g id="node27" class="node">
<title>src/zzfx.d.ts</title>
<g id="a_node27"><a xlink:href="src/zzfx.d.ts" xlink:title="zzfx.d.ts">
<path fill="#ccffcc" stroke="black" d="M69.5,-70C69.5,-70 27.5,-70 27.5,-70 24.5,-70 21.5,-67 21.5,-64 21.5,-64 21.5,-58 21.5,-58 21.5,-55 24.5,-52 27.5,-52 27.5,-52 69.5,-52 69.5,-52 72.5,-52 75.5,-55 75.5,-58 75.5,-58 75.5,-64 75.5,-64 75.5,-67 72.5,-70 69.5,-70"/>
<text text-anchor="start" x="32" y="-58.8" font-family="Helvetica,sans-Serif" font-size="9.00">zzfx.d.ts</text>
</a>
</g>
</g>
</g>
</svg>
