<?xml version="1.0" encoding="UTF-8" standalone="no"?>
<!DOCTYPE svg PUBLIC "-//W3C//DTD SVG 1.1//EN"
 "http://www.w3.org/Graphics/SVG/1.1/DTD/svg11.dtd">
<!-- Generated by graphviz version 7.1.0 (20230121.1956)
 -->
<!-- Title: dependency&#45;cruiser output Pages: 1 -->
<svg width="568pt" height="788pt"
 viewBox="0.00 0.00 568.00 788.00" xmlns="http://www.w3.org/2000/svg" xmlns:xlink="http://www.w3.org/1999/xlink">
<g id="graph0" class="graph" transform="scale(1 1) rotate(0) translate(4 784)">
<title>dependency&#45;cruiser output</title>
<polygon fill="white" stroke="none" points="-4,4 -4,-784 564,-784 564,4 -4,4"/>
<g id="clust1" class="cluster">
<title>cluster_src</title>
<path fill="#ffffff" stroke="black" stroke-width="2" d="M20,-8C20,-8 540,-8 540,-8 546,-8 552,-14 552,-20 552,-20 552,-760 552,-760 552,-766 546,-772 540,-772 540,-772 20,-772 20,-772 14,-772 8,-766 8,-760 8,-760 8,-20 8,-20 8,-14 14,-8 20,-8"/>
<text text-anchor="middle" x="280" y="-760.8" font-family="Helvetica,sans-Serif" font-weight="bold" font-size="9.00">src</text>
</g>
<g id="clust2" class="cluster">
<title>cluster_src/artwork</title>
<path fill="#ffffff" stroke="black" stroke-width="2" d="M334,-16C334,-16 532,-16 532,-16 538,-16 544,-22 544,-28 544,-28 544,-326 544,-326 544,-332 538,-338 532,-338 532,-338 334,-338 334,-338 328,-338 322,-332 322,-326 322,-326 322,-28 322,-28 322,-22 328,-16 334,-16"/>
<text text-anchor="middle" x="433" y="-326.8" font-family="Helvetica,sans-Serif" font-weight="bold" font-size="9.00">artwork</text>
</g>
<g id="clust3" class="cluster">
<title>cluster_src/audio</title>
<path fill="#ffffff" stroke="black" stroke-width="2" d="M105,-286C105,-286 183,-286 183,-286 189,-286 195,-292 195,-298 195,-298 195,-326 195,-326 195,-332 189,-338 183,-338 183,-338 105,-338 105,-338 99,-338 93,-332 93,-326 93,-326 93,-298 93,-298 93,-292 99,-286 105,-286"/>
<text text-anchor="middle" x="144" y="-326.8" font-family="Helvetica,sans-Serif" font-weight="bold" font-size="9.00">audio</text>
</g>
<g id="clust4" class="cluster">
<title>cluster_src/classes</title>
<path fill="#ffffff" stroke="black" stroke-width="2" d="M121,-346C121,-346 460.5,-346 460.5,-346 466.5,-346 472.5,-352 472.5,-358 472.5,-358 472.5,-566 472.5,-566 472.5,-572 466.5,-578 460.5,-578 460.5,-578 121,-578 121,-578 115,-578 109,-572 109,-566 109,-566 109,-358 109,-358 109,-352 115,-346 121,-346"/>
<text text-anchor="middle" x="290.75" y="-566.8" font-family="Helvetica,sans-Serif" font-weight="bold" font-size="9.00">classes</text>
</g>
<g id="clust5" class="cluster">
<title>cluster_src/html</title>
<path fill="#ffffff" stroke="black" stroke-width="2" d="M215,-624C215,-624 302,-624 302,-624 308,-624 314,-630 314,-636 314,-636 314,-724 314,-724 314,-730 308,-736 302,-736 302,-736 215,-736 215,-736 209,-736 203,-730 203,-724 203,-724 203,-636 203,-636 203,-630 209,-624 215,-624"/>
<text text-anchor="middle" x="258.5" y="-724.8" font-family="Helvetica,sans-Serif" font-weight="bold" font-size="9.00">html</text>
</g>
<g id="clust6" class="cluster">
<title>cluster_src/lib</title>
<path fill="#ffffff" stroke="black" stroke-width="2" d="M400.5,-586C400.5,-586 465.5,-586 465.5,-586 471.5,-586 477.5,-592 477.5,-598 477.5,-598 477.5,-656 477.5,-656 477.5,-662 471.5,-668 465.5,-668 465.5,-668 400.5,-668 400.5,-668 394.5,-668 388.5,-662 388.5,-656 388.5,-656 388.5,-598 388.5,-598 388.5,-592 394.5,-586 400.5,-586"/>
<text text-anchor="middle" x="433" y="-656.8" font-family="Helvetica,sans-Serif" font-weight="bold" font-size="9.00">lib</text>
</g>
<g id="clust7" class="cluster">
<title>cluster_src/types</title>
<path fill="#ffffff" stroke="black" stroke-width="2" d="M410,-676C410,-676 456,-676 456,-676 462,-676 468,-682 468,-688 468,-688 468,-716 468,-716 468,-722 462,-728 456,-728 456,-728 410,-728 410,-728 404,-728 398,-722 398,-716 398,-716 398,-688 398,-688 398,-682 404,-676 410,-676"/>
<text text-anchor="middle" x="433" y="-716.8" font-family="Helvetica,sans-Serif" font-weight="bold" font-size="9.00">types</text>
</g>
<!-- src/artwork/GalaxyUno.webp -->
<g id="node1" class="node">
<title>src/artwork/GalaxyUno.webp</title>
<g id="a_node1"><a xlink:href="src/artwork/GalaxyUno.webp" xlink:title="GalaxyUno.webp">
<path fill="#ffffcc" stroke="black" d="M470.5,-102C470.5,-102 395.5,-102 395.5,-102 392.5,-102 389.5,-99 389.5,-96 389.5,-96 389.5,-90 389.5,-90 389.5,-87 392.5,-84 395.5,-84 395.5,-84 470.5,-84 470.5,-84 473.5,-84 476.5,-87 476.5,-90 476.5,-90 476.5,-96 476.5,-96 476.5,-99 473.5,-102 470.5,-102"/>
<text text-anchor="start" x="397.5" y="-90.8" font-family="Helvetica,sans-Serif" font-size="9.00">GalaxyUno.webp</text>
</a>
</g>
</g>
<!-- src/artwork/attack&#45;of&#45;the&#45;space&#45;nerds&#45;splash&#45;screen.webp -->
<g id="node2" class="node">
<title>src/artwork/attack&#45;of&#45;the&#45;space&#45;nerds&#45;splash&#45;screen.webp</title>
<g id="a_node2"><a xlink:href="src/artwork/attack-of-the-space-nerds-splash-screen.webp" xlink:title="attack&#45;of&#45;the&#45;space&#45;nerds&#45;splash&#45;screen.webp">
<path fill="#ffffcc" stroke="black" d="M530,-42C530,-42 336,-42 336,-42 333,-42 330,-39 330,-36 330,-36 330,-30 330,-30 330,-27 333,-24 336,-24 336,-24 530,-24 530,-24 533,-24 536,-27 536,-30 536,-30 536,-36 536,-36 536,-39 533,-42 530,-42"/>
<text text-anchor="start" x="338" y="-30.8" font-family="Helvetica,sans-Serif" font-size="9.00">attack&#45;of&#45;the&#45;space&#45;nerds&#45;splash&#45;screen.webp</text>
</a>
</g>
</g>
<!-- src/artwork/bigEars.png -->
<g id="node3" class="node">
<title>src/artwork/bigEars.png</title>
<g id="a_node3"><a xlink:href="src/artwork/bigEars.png" xlink:title="bigEars.png">
<path fill="#ffffcc" stroke="black" d="M460,-252C460,-252 406,-252 406,-252 403,-252 400,-249 400,-246 400,-246 400,-240 400,-240 400,-237 403,-234 406,-234 406,-234 460,-234 460,-234 463,-234 466,-237 466,-240 466,-240 466,-246 466,-246 466,-249 463,-252 460,-252"/>
<text text-anchor="start" x="408" y="-240.8" font-family="Helvetica,sans-Serif" font-size="9.00">bigEars.png</text>
</a>
</g>
</g>
<!-- src/artwork/foreground&#45;stars.webp -->
<g id="node4" class="node">
<title>src/artwork/foreground&#45;stars.webp</title>
<g id="a_node4"><a xlink:href="src/artwork/foreground-stars.webp" xlink:title="foreground&#45;stars.webp">
<path fill="#ffffcc" stroke="black" d="M481.5,-72C481.5,-72 384.5,-72 384.5,-72 381.5,-72 378.5,-69 378.5,-66 378.5,-66 378.5,-60 378.5,-60 378.5,-57 381.5,-54 384.5,-54 384.5,-54 481.5,-54 481.5,-54 484.5,-54 487.5,-57 487.5,-60 487.5,-60 487.5,-66 487.5,-66 487.5,-69 484.5,-72 481.5,-72"/>
<text text-anchor="start" x="386.5" y="-60.8" font-family="Helvetica,sans-Serif" font-size="9.00">foreground&#45;stars.webp</text>
</a>
</g>
</g>
<!-- src/artwork/laserGreen.png -->
<g id="node5" class="node">
<title>src/artwork/laserGreen.png</title>
<g id="a_node5"><a xlink:href="src/artwork/laserGreen.png" xlink:title="laserGreen.png">
<path fill="#ffffcc" stroke="black" d="M467,-312C467,-312 399,-312 399,-312 396,-312 393,-309 393,-306 393,-306 393,-300 393,-300 393,-297 396,-294 399,-294 399,-294 467,-294 467,-294 470,-294 473,-297 473,-300 473,-300 473,-306 473,-306 473,-309 470,-312 467,-312"/>
<text text-anchor="start" x="401" y="-300.8" font-family="Helvetica,sans-Serif" font-size="9.00">laserGreen.png</text>
</a>
</g>
</g>
<!-- src/artwork/laserGreenShot.png -->
<g id="node6" class="node">
<title>src/artwork/laserGreenShot.png</title>
<g id="a_node6"><a xlink:href="src/artwork/laserGreenShot.png" xlink:title="laserGreenShot.png">
<path fill="#ffffcc" stroke="black" d="M476.5,-282C476.5,-282 389.5,-282 389.5,-282 386.5,-282 383.5,-279 383.5,-276 383.5,-276 383.5,-270 383.5,-270 383.5,-267 386.5,-264 389.5,-264 389.5,-264 476.5,-264 476.5,-264 479.5,-264 482.5,-267 482.5,-270 482.5,-270 482.5,-276 482.5,-276 482.5,-279 479.5,-282 476.5,-282"/>
<text text-anchor="start" x="391.5" y="-270.8" font-family="Helvetica,sans-Serif" font-size="9.00">laserGreenShot.png</text>
</a>
</g>
</g>
<!-- src/artwork/player.png -->
<g id="node7" class="node">
<title>src/artwork/player.png</title>
<g id="a_node7"><a xlink:href="src/artwork/player.png" xlink:title="player.png">
<path fill="#ffffcc" stroke="black" d="M457,-132C457,-132 409,-132 409,-132 406,-132 403,-129 403,-126 403,-126 403,-120 403,-120 403,-117 406,-114 409,-114 409,-114 457,-114 457,-114 460,-114 463,-117 463,-120 463,-120 463,-126 463,-126 463,-129 460,-132 457,-132"/>
<text text-anchor="start" x="411" y="-120.8" font-family="Helvetica,sans-Serif" font-size="9.00">player.png</text>
</a>
</g>
</g>
<!-- src/artwork/playerLeft.png -->
<g id="node8" class="node">
<title>src/artwork/playerLeft.png</title>
<g id="a_node8"><a xlink:href="src/artwork/playerLeft.png" xlink:title="playerLeft.png">
<path fill="#ffffcc" stroke="black" d="M464.5,-192C464.5,-192 401.5,-192 401.5,-192 398.5,-192 395.5,-189 395.5,-186 395.5,-186 395.5,-180 395.5,-180 395.5,-177 398.5,-174 401.5,-174 401.5,-174 464.5,-174 464.5,-174 467.5,-174 470.5,-177 470.5,-180 470.5,-180 470.5,-186 470.5,-186 470.5,-189 467.5,-192 464.5,-192"/>
<text text-anchor="start" x="403.5" y="-180.8" font-family="Helvetica,sans-Serif" font-size="9.00">playerLeft.png</text>
</a>
</g>
</g>
<!-- src/artwork/playerRight.png -->
<g id="node9" class="node">
<title>src/artwork/playerRight.png</title>
<g id="a_node9"><a xlink:href="src/artwork/playerRight.png" xlink:title="playerRight.png">
<path fill="#ffffcc" stroke="black" d="M468,-162C468,-162 398,-162 398,-162 395,-162 392,-159 392,-156 392,-156 392,-150 392,-150 392,-147 395,-144 398,-144 398,-144 468,-144 468,-144 471,-144 474,-147 474,-150 474,-150 474,-156 474,-156 474,-159 471,-162 468,-162"/>
<text text-anchor="start" x="400" y="-150.8" font-family="Helvetica,sans-Serif" font-size="9.00">playerRight.png</text>
</a>
</g>
</g>
<!-- src/artwork/scaryGeek.png -->
<g id="node10" class="node">
<title>src/artwork/scaryGeek.png</title>
<g id="a_node10"><a xlink:href="src/artwork/scaryGeek.png" xlink:title="scaryGeek.png">
<path fill="#ffffcc" stroke="black" d="M466,-222C466,-222 400,-222 400,-222 397,-222 394,-219 394,-216 394,-216 394,-210 394,-210 394,-207 397,-204 400,-204 400,-204 466,-204 466,-204 469,-204 472,-207 472,-210 472,-210 472,-216 472,-216 472,-219 469,-222 466,-222"/>
<text text-anchor="start" x="402" y="-210.8" font-family="Helvetica,sans-Serif" font-size="9.00">scaryGeek.png</text>
</a>
</g>
</g>
<!-- src/audio/Raining Bits.mp3 -->
<g id="node11" class="node">
<title>src/audio/Raining Bits.mp3</title>
<g id="a_node11"><a xlink:href="src/audio/Raining Bits.mp3" xlink:title="Raining Bits.mp3">
<path fill="#ffffcc" stroke="black" d="M181,-312C181,-312 107,-312 107,-312 104,-312 101,-309 101,-306 101,-306 101,-300 101,-300 101,-297 104,-294 107,-294 107,-294 181,-294 181,-294 184,-294 187,-297 187,-300 187,-300 187,-306 187,-306 187,-309 184,-312 181,-312"/>
<text text-anchor="start" x="109" y="-300.8" font-family="Helvetica,sans-Serif" font-size="9.00">Raining Bits.mp3</text>
</a>
</g>
</g>
<!-- src/classes/background.ts -->
<g id="node12" class="node">
<title>src/classes/background.ts</title>
<g id="a_node12"><a xlink:href="src/classes/background.ts" xlink:title="background.ts">
<path fill="#ddfeff" stroke="black" d="M289.5,-372C289.5,-372 227.5,-372 227.5,-372 224.5,-372 221.5,-369 221.5,-366 221.5,-366 221.5,-360 221.5,-360 221.5,-357 224.5,-354 227.5,-354 227.5,-354 289.5,-354 289.5,-354 292.5,-354 295.5,-357 295.5,-360 295.5,-360 295.5,-366 295.5,-366 295.5,-369 292.5,-372 289.5,-372"/>
<text text-anchor="start" x="229.5" y="-360.8" font-family="Helvetica,sans-Serif" font-size="9.00">background.ts</text>
</a>
</g>
</g>
<!-- src/classes/background.ts&#45;&gt;src/artwork/GalaxyUno.webp -->
<g id="edge2" class="edge">
<title>src/classes/background.ts&#45;&gt;src/artwork/GalaxyUno.webp</title>
<path fill="none" stroke="#000000" stroke-width="2" stroke-opacity="0.200000" d="M263.15,-353.86C273.13,-328.49 300.96,-254.84 314,-191 317.71,-172.84 309.16,-121.36 322,-108 336.78,-92.62 359.35,-87.74 380.2,-87.15"/>
<polygon fill="#000000" fill-opacity="0.200000" stroke="#000000" stroke-width="2" stroke-opacity="0.200000" points="379.98,-89.25 385.98,-87.14 379.98,-85.05 379.98,-89.25"/>
</g>
<!-- src/classes/background.ts&#45;&gt;src/artwork/foreground&#45;stars.webp -->
<g id="edge1" class="edge">
<title>src/classes/background.ts&#45;&gt;src/artwork/foreground&#45;stars.webp</title>
<path fill="none" stroke="#000000" stroke-width="2" stroke-opacity="0.200000" d="M263.39,-353.51C273.71,-327.84 301.83,-254.69 314,-191 316.36,-178.64 313.39,-87.18 322,-78 334.18,-65.01 351.89,-59.44 369.56,-57.63"/>
<polygon fill="#000000" fill-opacity="0.200000" stroke="#000000" stroke-width="2" stroke-opacity="0.200000" points="369.34,-59.75 375.18,-57.24 369.05,-55.56 369.34,-59.75"/>
</g>
<!-- src/classes/layer.ts -->
<g id="node13" class="node">
<title>src/classes/layer.ts</title>
<g id="a_node13"><a xlink:href="src/classes/layer.ts" xlink:title="layer.ts">
<path fill="#ddfeff" stroke="black" d="M454,-372C454,-372 412,-372 412,-372 409,-372 406,-369 406,-366 406,-366 406,-360 406,-360 406,-357 409,-354 412,-354 412,-354 454,-354 454,-354 457,-354 460,-357 460,-360 460,-360 460,-366 460,-366 460,-369 457,-372 454,-372"/>
<text text-anchor="start" x="418" y="-360.8" font-family="Helvetica,sans-Serif" font-size="9.00">layer.ts</text>
</a>
</g>
</g>
<!-- src/classes/background.ts&#45;&gt;src/classes/layer.ts -->
<g id="edge3" class="edge">
<title>src/classes/background.ts&#45;&gt;src/classes/layer.ts</title>
<path fill="none" stroke="#000000" stroke-width="2" stroke-opacity="0.200000" d="M295.66,-363C325.48,-363 367.51,-363 397,-363"/>
<polygon fill="#000000" fill-opacity="0.200000" stroke="#000000" stroke-width="2" stroke-opacity="0.200000" points="396.7,-365.1 402.7,-363 396.7,-360.9 396.7,-365.1"/>
</g>
<!-- src/classes/enemy.ts -->
<g id="node14" class="node">
<title>src/classes/enemy.ts</title>
<g id="a_node14"><a xlink:href="src/classes/enemy.ts" xlink:title="enemy.ts">
<path fill="#ddfeff" stroke="black" d="M279.5,-462C279.5,-462 237.5,-462 237.5,-462 234.5,-462 231.5,-459 231.5,-456 231.5,-456 231.5,-450 231.5,-450 231.5,-447 234.5,-444 237.5,-444 237.5,-444 279.5,-444 279.5,-444 282.5,-444 285.5,-447 285.5,-450 285.5,-450 285.5,-456 285.5,-456 285.5,-459 282.5,-462 279.5,-462"/>
<text text-anchor="start" x="240" y="-450.8" font-family="Helvetica,sans-Serif" font-size="9.00">enemy.ts</text>
</a>
</g>
</g>
<!-- src/classes/enemy.ts&#45;&gt;src/artwork/bigEars.png -->
<g id="edge4" class="edge">
<title>src/classes/enemy.ts&#45;&gt;src/artwork/bigEars.png</title>
<path fill="none" stroke="#000000" stroke-width="2" stroke-opacity="0.200000" d="M285.89,-452.16C296.26,-450.4 307.27,-446.44 314,-438 326.48,-422.35 308.5,-272.79 322,-258 338.94,-239.44 367.14,-235.9 390.75,-236.88"/>
<polygon fill="#000000" fill-opacity="0.200000" stroke="#000000" stroke-width="2" stroke-opacity="0.200000" points="390.4,-238.96 396.52,-237.26 390.67,-234.77 390.4,-238.96"/>
</g>
<!-- src/classes/enemy.ts&#45;&gt;src/artwork/laserGreenShot.png -->
<g id="edge5" class="edge">
<title>src/classes/enemy.ts&#45;&gt;src/artwork/laserGreenShot.png</title>
<path fill="none" stroke="#000000" stroke-width="2" stroke-opacity="0.200000" d="M285.86,-452.13C296.22,-450.36 307.23,-446.41 314,-438 334.93,-412 299.39,-312.55 322,-288 335.19,-273.68 355.1,-268.32 374.37,-267.09"/>
<polygon fill="#000000" fill-opacity="0.200000" stroke="#000000" stroke-width="2" stroke-opacity="0.200000" points="374.21,-269.2 380.13,-266.9 374.07,-265 374.21,-269.2"/>
</g>
<!-- src/classes/enemy.ts&#45;&gt;src/artwork/scaryGeek.png -->
<g id="edge6" class="edge">
<title>src/classes/enemy.ts&#45;&gt;src/artwork/scaryGeek.png</title>
<path fill="none" stroke="#000000" stroke-width="2" stroke-opacity="0.200000" d="M285.92,-452.18C296.29,-450.42 307.3,-446.46 314,-438 328.5,-419.7 306.31,-245.3 322,-228 337.48,-210.94 362.48,-206.54 384.74,-206.7"/>
<polygon fill="#000000" fill-opacity="0.200000" stroke="#000000" stroke-width="2" stroke-opacity="0.200000" points="384.67,-208.79 390.73,-206.9 384.81,-204.6 384.67,-208.79"/>
</g>
<!-- src/lib/movements.ts -->
<g id="node15" class="node">
<title>src/lib/movements.ts</title>
<g id="a_node15"><a xlink:href="src/lib/movements.ts" xlink:title="movements.ts">
<path fill="#ddfeff" stroke="black" d="M463.5,-612C463.5,-612 402.5,-612 402.5,-612 399.5,-612 396.5,-609 396.5,-606 396.5,-606 396.5,-600 396.5,-600 396.5,-597 399.5,-594 402.5,-594 402.5,-594 463.5,-594 463.5,-594 466.5,-594 469.5,-597 469.5,-600 469.5,-600 469.5,-606 469.5,-606 469.5,-609 466.5,-612 463.5,-612"/>
<text text-anchor="start" x="404.5" y="-600.8" font-family="Helvetica,sans-Serif" font-size="9.00">movements.ts</text>
</a>
</g>
</g>
<!-- src/classes/enemy.ts&#45;&gt;src/lib/movements.ts -->
<g id="edge7" class="edge">
<title>src/classes/enemy.ts&#45;&gt;src/lib/movements.ts</title>
<path fill="none" stroke="#000000" stroke-width="2" stroke-opacity="0.200000" d="M285.78,-453.92C296.13,-455.71 307.16,-459.65 314,-468 329.96,-487.47 305.36,-562.11 322,-581 337.97,-599.13 364.28,-604.85 387.17,-605.94"/>
<polygon fill="#000000" fill-opacity="0.200000" stroke="#000000" stroke-width="2" stroke-opacity="0.200000" points="387,-608.04 393.05,-606.08 387.1,-603.84 387,-608.04"/>
</g>
<!-- src/lib/util.ts -->
<g id="node16" class="node">
<title>src/lib/util.ts</title>
<g id="a_node16"><a xlink:href="src/lib/util.ts" xlink:title="util.ts">
<path fill="#ddfeff" stroke="black" d="M454,-642C454,-642 412,-642 412,-642 409,-642 406,-639 406,-636 406,-636 406,-630 406,-630 406,-627 409,-624 412,-624 412,-624 454,-624 454,-624 457,-624 460,-627 460,-630 460,-630 460,-636 460,-636 460,-639 457,-642 454,-642"/>
<text text-anchor="start" x="422" y="-630.8" font-family="Helvetica,sans-Serif" font-size="9.00">util.ts</text>
</a>
</g>
</g>
<!-- src/classes/enemy.ts&#45;&gt;src/lib/util.ts -->
<g id="edge8" class="edge">
<title>src/classes/enemy.ts&#45;&gt;src/lib/util.ts</title>
<path fill="none" stroke="#000000" stroke-width="2" stroke-opacity="0.200000" d="M285.86,-453.87C296.22,-455.64 307.23,-459.59 314,-468 334.93,-494 299.39,-593.45 322,-618 340.49,-638.08 372.18,-640.53 396.81,-638.72"/>
<polygon fill="#000000" fill-opacity="0.200000" stroke="#000000" stroke-width="2" stroke-opacity="0.200000" points="396.75,-640.83 402.52,-638.17 396.35,-636.65 396.75,-640.83"/>
</g>
<!-- src/classes/sfx.ts -->
<g id="node17" class="node">
<title>src/classes/sfx.ts</title>
<g id="a_node17"><a xlink:href="src/classes/sfx.ts" xlink:title="sfx.ts">
<path fill="#ddfeff" stroke="black" d="M454,-454C454,-454 412,-454 412,-454 409,-454 406,-451 406,-448 406,-448 406,-442 406,-442 406,-439 409,-436 412,-436 412,-436 454,-436 454,-436 457,-436 460,-439 460,-442 460,-442 460,-448 460,-448 460,-451 457,-454 454,-454"/>
<text text-anchor="start" x="422.5" y="-442.8" font-family="Helvetica,sans-Serif" font-size="9.00">sfx.ts</text>
</a>
</g>
</g>
<!-- src/classes/enemy.ts&#45;&gt;src/classes/sfx.ts -->
<g id="edge9" class="edge">
<title>src/classes/enemy.ts&#45;&gt;src/classes/sfx.ts</title>
<path fill="none" stroke="#000000" stroke-width="2" stroke-opacity="0.200000" d="M285.7,-451.78C315.33,-450.41 363.75,-448.17 396.7,-446.64"/>
<polygon fill="#000000" fill-opacity="0.200000" stroke="#000000" stroke-width="2" stroke-opacity="0.200000" points="396.63,-448.74 402.53,-446.37 396.44,-444.55 396.63,-448.74"/>
</g>
<!-- src/classes/game.ts -->
<g id="node18" class="node">
<title>src/classes/game.ts</title>
<g id="a_node18"><a xlink:href="src/classes/game.ts" xlink:title="game.ts">
<path fill="#ddfeff" stroke="black" d="M165,-492C165,-492 123,-492 123,-492 120,-492 117,-489 117,-486 117,-486 117,-480 117,-480 117,-477 120,-474 123,-474 123,-474 165,-474 165,-474 168,-474 171,-477 171,-480 171,-480 171,-486 171,-486 171,-489 168,-492 165,-492"/>
<text text-anchor="start" x="127.5" y="-480.8" font-family="Helvetica,sans-Serif" font-size="9.00">game.ts</text>
</a>
</g>
</g>
<!-- src/classes/game.ts&#45;&gt;src/artwork/attack&#45;of&#45;the&#45;space&#45;nerds&#45;splash&#45;screen.webp -->
<g id="edge10" class="edge">
<title>src/classes/game.ts&#45;&gt;src/artwork/attack&#45;of&#45;the&#45;space&#45;nerds&#45;splash&#45;screen.webp</title>
<path fill="none" stroke="#000000" stroke-width="2" stroke-opacity="0.200000" d="M148.43,-473.85C171.44,-412.46 303.2,-62.59 322,-48 322.33,-47.74 322.67,-47.49 323.01,-47.23"/>
<polygon fill="#000000" fill-opacity="0.200000" stroke="#000000" stroke-width="2" stroke-opacity="0.200000" points="323.99,-49.1 327.87,-44.07 321.7,-45.58 323.99,-49.1"/>
</g>
<!-- src/classes/game.ts&#45;&gt;src/classes/background.ts -->
<g id="edge13" class="edge">
<title>src/classes/game.ts&#45;&gt;src/classes/background.ts</title>
<path fill="none" stroke="#000000" stroke-width="2" stroke-opacity="0.200000" d="M147.5,-473.52C153.46,-452.87 170.45,-403.65 203,-378 206.07,-375.58 209.51,-373.55 213.13,-371.84"/>
<polygon fill="#000000" fill-opacity="0.200000" stroke="#000000" stroke-width="2" stroke-opacity="0.200000" points="213.65,-373.9 218.44,-369.73 212.09,-369.99 213.65,-373.9"/>
</g>
<!-- src/classes/game.ts&#45;&gt;src/classes/enemy.ts -->
<g id="edge14" class="edge">
<title>src/classes/game.ts&#45;&gt;src/classes/enemy.ts</title>
<path fill="none" stroke="#000000" stroke-width="2" stroke-opacity="0.200000" d="M171.38,-475.97C186.75,-471.87 206.32,-466.65 222.92,-462.22"/>
<polygon fill="#000000" fill-opacity="0.200000" stroke="#000000" stroke-width="2" stroke-opacity="0.200000" points="223.11,-464.34 228.36,-460.77 222.03,-460.29 223.11,-464.34"/>
</g>
<!-- src/classes/game.ts&#45;&gt;src/lib/util.ts -->
<g id="edge11" class="edge">
<title>src/classes/game.ts&#45;&gt;src/lib/util.ts</title>
<path fill="none" stroke="#000000" stroke-width="2" stroke-opacity="0.200000" d="M171.47,-484.1C180.14,-485.82 189.07,-489.27 195,-496 213.37,-516.84 183.5,-538.21 203,-558 237.98,-593.5 278.11,-539.41 314,-574 328.31,-587.79 307.64,-604.26 322,-618 341.51,-636.67 372.61,-639.39 396.77,-638.04"/>
<polygon fill="#000000" fill-opacity="0.200000" stroke="#000000" stroke-width="2" stroke-opacity="0.200000" points="396.82,-640.14 402.64,-637.58 396.49,-635.95 396.82,-640.14"/>
</g>
<!-- src/types/index.ts -->
<g id="node19" class="node">
<title>src/types/index.ts</title>
<g id="a_node19"><a xlink:href="src/types/index.ts" xlink:title="index.ts">
<path fill="#ddfeff" stroke="black" d="M454,-702C454,-702 412,-702 412,-702 409,-702 406,-699 406,-696 406,-696 406,-690 406,-690 406,-687 409,-684 412,-684 412,-684 454,-684 454,-684 457,-684 460,-687 460,-690 460,-690 460,-696 460,-696 460,-699 457,-702 454,-702"/>
<text text-anchor="start" x="417" y="-690.8" font-family="Helvetica,sans-Serif" font-size="9.00">index.ts</text>
</a>
</g>
</g>
<!-- src/classes/game.ts&#45;&gt;src/types/index.ts -->
<g id="edge12" class="edge">
<title>src/classes/game.ts&#45;&gt;src/types/index.ts</title>
<path fill="none" stroke="#000000" stroke-width="2" stroke-opacity="0.200000" d="M171.28,-483.98C180.05,-485.67 189.08,-489.14 195,-496 216.61,-521.04 182.14,-544.33 203,-570 235.71,-610.25 280.99,-565.99 314,-606 332.52,-628.45 302.2,-649.66 322,-671 340.67,-691.13 372.14,-695.76 396.65,-695.86"/>
<polygon fill="#000000" fill-opacity="0.200000" stroke="#000000" stroke-width="2" stroke-opacity="0.200000" points="396.67,-697.96 402.63,-695.75 396.6,-693.76 396.67,-697.96"/>
</g>
<!-- src/classes/input&#45;handler.ts -->
<g id="node20" class="node">
<title>src/classes/input&#45;handler.ts</title>
<g id="a_node20"><a xlink:href="src/classes/input-handler.ts" xlink:title="input&#45;handler.ts">
<path fill="#ddfeff" stroke="black" d="M292.5,-522C292.5,-522 224.5,-522 224.5,-522 221.5,-522 218.5,-519 218.5,-516 218.5,-516 218.5,-510 218.5,-510 218.5,-507 221.5,-504 224.5,-504 224.5,-504 292.5,-504 292.5,-504 295.5,-504 298.5,-507 298.5,-510 298.5,-510 298.5,-516 298.5,-516 298.5,-519 295.5,-522 292.5,-522"/>
<text text-anchor="start" x="226.5" y="-510.8" font-family="Helvetica,sans-Serif" font-size="9.00">input&#45;handler.ts</text>
</a>
</g>
</g>
<!-- src/classes/game.ts&#45;&gt;src/classes/input&#45;handler.ts -->
<g id="edge15" class="edge">
<title>src/classes/game.ts&#45;&gt;src/classes/input&#45;handler.ts</title>
<path fill="none" stroke="#000000" stroke-width="2" stroke-opacity="0.200000" d="M171.48,-489.83C179.08,-491.8 187.37,-493.97 195,-496 201.42,-497.71 208.2,-499.53 214.84,-501.33"/>
<polygon fill="#000000" fill-opacity="0.200000" stroke="#000000" stroke-width="2" stroke-opacity="0.200000" points="213.87,-503.24 220.21,-502.79 214.97,-499.19 213.87,-503.24"/>
</g>
<!-- src/classes/particle.ts -->
<g id="node21" class="node">
<title>src/classes/particle.ts</title>
<g id="a_node21"><a xlink:href="src/classes/particle.ts" xlink:title="particle.ts">
<path fill="#ddfeff" stroke="black" d="M280.5,-492C280.5,-492 236.5,-492 236.5,-492 233.5,-492 230.5,-489 230.5,-486 230.5,-486 230.5,-480 230.5,-480 230.5,-477 233.5,-474 236.5,-474 236.5,-474 280.5,-474 280.5,-474 283.5,-474 286.5,-477 286.5,-480 286.5,-480 286.5,-486 286.5,-486 286.5,-489 283.5,-492 280.5,-492"/>
<text text-anchor="start" x="238.5" y="-480.8" font-family="Helvetica,sans-Serif" font-size="9.00">particle.ts</text>
</a>
</g>
</g>
<!-- src/classes/game.ts&#45;&gt;src/classes/particle.ts -->
<g id="edge16" class="edge">
<title>src/classes/game.ts&#45;&gt;src/classes/particle.ts</title>
<path fill="none" stroke="#000000" stroke-width="2" stroke-opacity="0.200000" d="M171.38,-483C186.28,-483 205.13,-483 221.39,-483"/>
<polygon fill="#000000" fill-opacity="0.200000" stroke="#000000" stroke-width="2" stroke-opacity="0.200000" points="221.09,-485.1 227.09,-483 221.09,-480.9 221.09,-485.1"/>
</g>
<!-- src/classes/player.ts -->
<g id="node22" class="node">
<title>src/classes/player.ts</title>
<g id="a_node22"><a xlink:href="src/classes/player.ts" xlink:title="player.ts">
<path fill="#ddfeff" stroke="black" d="M279.5,-432C279.5,-432 237.5,-432 237.5,-432 234.5,-432 231.5,-429 231.5,-426 231.5,-426 231.5,-420 231.5,-420 231.5,-417 234.5,-414 237.5,-414 237.5,-414 279.5,-414 279.5,-414 282.5,-414 285.5,-417 285.5,-420 285.5,-420 285.5,-426 285.5,-426 285.5,-429 282.5,-432 279.5,-432"/>
<text text-anchor="start" x="241" y="-420.8" font-family="Helvetica,sans-Serif" font-size="9.00">player.ts</text>
</a>
</g>
</g>
<!-- src/classes/game.ts&#45;&gt;src/classes/player.ts -->
<g id="edge17" class="edge">
<title>src/classes/game.ts&#45;&gt;src/classes/player.ts</title>
<path fill="none" stroke="#000000" stroke-width="2" stroke-opacity="0.200000" d="M154.45,-473.74C165.31,-463.58 184.08,-447.47 203,-438 209.17,-434.91 216.06,-432.39 222.81,-430.35"/>
<polygon fill="#000000" fill-opacity="0.200000" stroke="#000000" stroke-width="2" stroke-opacity="0.200000" points="223.08,-432.45 228.31,-428.83 221.97,-428.41 223.08,-432.45"/>
</g>
<!-- src/classes/splash&#45;screen.ts -->
<g id="node23" class="node">
<title>src/classes/splash&#45;screen.ts</title>
<g id="a_node23"><a xlink:href="src/classes/splash-screen.ts" xlink:title="splash&#45;screen.ts">
<path fill="#ddfeff" stroke="black" d="M294,-552C294,-552 223,-552 223,-552 220,-552 217,-549 217,-546 217,-546 217,-540 217,-540 217,-537 220,-534 223,-534 223,-534 294,-534 294,-534 297,-534 300,-537 300,-540 300,-540 300,-546 300,-546 300,-549 297,-552 294,-552"/>
<text text-anchor="start" x="225" y="-540.8" font-family="Helvetica,sans-Serif" font-size="9.00">splash&#45;screen.ts</text>
</a>
</g>
</g>
<!-- src/classes/game.ts&#45;&gt;src/classes/splash&#45;screen.ts -->
<g id="edge18" class="edge">
<title>src/classes/game.ts&#45;&gt;src/classes/splash&#45;screen.ts</title>
<path fill="none" stroke="#000000" stroke-width="2" stroke-opacity="0.200000" d="M171.3,-484.55C179.86,-486.32 188.75,-489.69 195,-496 205.32,-506.41 192.76,-517.51 203,-528 204.8,-529.84 206.8,-531.47 208.95,-532.89"/>
<polygon fill="#000000" fill-opacity="0.200000" stroke="#000000" stroke-width="2" stroke-opacity="0.200000" points="207.76,-534.64 214.04,-535.61 209.74,-530.93 207.76,-534.64"/>
</g>
<!-- src/classes/ui.ts -->
<g id="node24" class="node">
<title>src/classes/ui.ts</title>
<g id="a_node24"><a xlink:href="src/classes/ui.ts" xlink:title="ui.ts">
<path fill="#ddfeff" stroke="black" d="M279.5,-402C279.5,-402 237.5,-402 237.5,-402 234.5,-402 231.5,-399 231.5,-396 231.5,-396 231.5,-390 231.5,-390 231.5,-387 234.5,-384 237.5,-384 237.5,-384 279.5,-384 279.5,-384 282.5,-384 285.5,-387 285.5,-390 285.5,-390 285.5,-396 285.5,-396 285.5,-399 282.5,-402 279.5,-402"/>
<text text-anchor="start" x="250" y="-390.8" font-family="Helvetica,sans-Serif" font-size="9.00">ui.ts</text>
</a>
</g>
</g>
<!-- src/classes/game.ts&#45;&gt;src/classes/ui.ts -->
<g id="edge19" class="edge">
<title>src/classes/game.ts&#45;&gt;src/classes/ui.ts</title>
<path fill="none" stroke="#000000" stroke-width="2" stroke-opacity="0.200000" d="M149.66,-473.58C158.06,-457.6 177.3,-425.23 203,-408 208.85,-404.08 215.69,-401.18 222.52,-399.04"/>
<polygon fill="#000000" fill-opacity="0.200000" stroke="#000000" stroke-width="2" stroke-opacity="0.200000" points="222.93,-401.1 228.17,-397.5 221.83,-397.05 222.93,-401.1"/>
</g>
<!-- src/classes/input&#45;handler.ts&#45;&gt;src/types/index.ts -->
<g id="edge20" class="edge">
<title>src/classes/input&#45;handler.ts&#45;&gt;src/types/index.ts</title>
<path fill="none" stroke="#000000" stroke-width="2" stroke-opacity="0.200000" d="M298.83,-517.41C304.68,-519.73 310.06,-523.11 314,-528 333.99,-552.77 301.14,-646.96 322,-671 340.19,-691.96 372.21,-696.4 397.03,-696.22"/>
<polygon fill="#000000" fill-opacity="0.200000" stroke="#000000" stroke-width="2" stroke-opacity="0.200000" points="396.85,-698.33 402.78,-696.06 396.73,-694.13 396.85,-698.33"/>
</g>
<!-- src/classes/particle.ts&#45;&gt;src/lib/util.ts -->
<g id="edge21" class="edge">
<title>src/classes/particle.ts&#45;&gt;src/lib/util.ts</title>
<path fill="none" stroke="#000000" stroke-width="2" stroke-opacity="0.200000" d="M286.93,-484.11C296.95,-485.98 307.42,-489.94 314,-498 330.9,-518.71 303.76,-598.46 322,-618 340.62,-637.95 372.3,-640.42 396.89,-638.64"/>
<polygon fill="#000000" fill-opacity="0.200000" stroke="#000000" stroke-width="2" stroke-opacity="0.200000" points="396.81,-640.76 402.58,-638.11 396.41,-636.58 396.81,-640.76"/>
</g>
<!-- src/classes/player.ts&#45;&gt;src/artwork/player.png -->
<g id="edge22" class="edge">
<title>src/classes/player.ts&#45;&gt;src/artwork/player.png</title>
<path fill="none" stroke="#000000" stroke-width="2" stroke-opacity="0.200000" d="M285.95,-422.21C296.33,-420.45 307.33,-416.49 314,-408 332.54,-384.4 301.93,-160.32 322,-138 339.6,-118.43 369.72,-115.47 394,-116.97"/>
<polygon fill="#000000" fill-opacity="0.200000" stroke="#000000" stroke-width="2" stroke-opacity="0.200000" points="393.81,-119.06 399.96,-117.48 394.16,-114.87 393.81,-119.06"/>
</g>
<!-- src/classes/player.ts&#45;&gt;src/artwork/playerLeft.png -->
<g id="edge23" class="edge">
<title>src/classes/player.ts&#45;&gt;src/artwork/playerLeft.png</title>
<path fill="none" stroke="#000000" stroke-width="2" stroke-opacity="0.200000" d="M285.92,-422.18C296.29,-420.42 307.3,-416.46 314,-408 328.5,-389.7 306.31,-215.3 322,-198 337.83,-180.54 363.63,-176.34 386.27,-176.71"/>
<polygon fill="#000000" fill-opacity="0.200000" stroke="#000000" stroke-width="2" stroke-opacity="0.200000" points="385.98,-178.8 392.06,-176.96 386.16,-174.61 385.98,-178.8"/>
</g>
<!-- src/classes/player.ts&#45;&gt;src/artwork/playerRight.png -->
<g id="edge24" class="edge">
<title>src/classes/player.ts&#45;&gt;src/artwork/playerRight.png</title>
<path fill="none" stroke="#000000" stroke-width="2" stroke-opacity="0.200000" d="M285.94,-422.2C296.31,-420.44 307.32,-416.48 314,-408 330.52,-387.05 304.12,-187.81 322,-168 336.98,-151.4 360.98,-146.77 382.74,-146.66"/>
<polygon fill="#000000" fill-opacity="0.200000" stroke="#000000" stroke-width="2" stroke-opacity="0.200000" points="382.51,-148.76 388.55,-146.79 382.6,-144.56 382.51,-148.76"/>
</g>
<!-- src/classes/player.ts&#45;&gt;src/classes/sfx.ts -->
<g id="edge26" class="edge">
<title>src/classes/player.ts&#45;&gt;src/classes/sfx.ts</title>
<path fill="none" stroke="#000000" stroke-width="2" stroke-opacity="0.200000" d="M285.7,-426.34C315.33,-430.12 363.75,-436.3 396.7,-440.5"/>
<polygon fill="#000000" fill-opacity="0.200000" stroke="#000000" stroke-width="2" stroke-opacity="0.200000" points="396.33,-442.57 402.55,-441.24 396.87,-438.4 396.33,-442.57"/>
</g>
<!-- src/classes/projectile.ts -->
<g id="node25" class="node">
<title>src/classes/projectile.ts</title>
<g id="a_node25"><a xlink:href="src/classes/projectile.ts" xlink:title="projectile.ts">
<path fill="#ddfeff" stroke="black" d="M458.5,-417C458.5,-417 407.5,-417 407.5,-417 404.5,-417 401.5,-414 401.5,-411 401.5,-411 401.5,-405 401.5,-405 401.5,-402 404.5,-399 407.5,-399 407.5,-399 458.5,-399 458.5,-399 461.5,-399 464.5,-402 464.5,-405 464.5,-405 464.5,-411 464.5,-411 464.5,-414 461.5,-417 458.5,-417"/>
<text text-anchor="start" x="409.5" y="-405.8" font-family="Helvetica,sans-Serif" font-size="9.00">projectile.ts</text>
</a>
</g>
</g>
<!-- src/classes/player.ts&#45;&gt;src/classes/projectile.ts -->
<g id="edge25" class="edge">
<title>src/classes/player.ts&#45;&gt;src/classes/projectile.ts</title>
<path fill="none" stroke="#000000" stroke-width="2" stroke-opacity="0.200000" d="M285.7,-420.72C314.04,-418.26 359.56,-414.3 392.3,-411.45"/>
<polygon fill="#000000" fill-opacity="0.200000" stroke="#000000" stroke-width="2" stroke-opacity="0.200000" points="392.36,-413.55 398.16,-410.94 392,-409.37 392.36,-413.55"/>
</g>
<!-- src/classes/splash&#45;screen.ts&#45;&gt;src/types/index.ts -->
<g id="edge28" class="edge">
<title>src/classes/splash&#45;screen.ts&#45;&gt;src/types/index.ts</title>
<path fill="none" stroke="#000000" stroke-width="2" stroke-opacity="0.200000" d="M273.33,-552.35C286.25,-561.91 304.87,-578.04 314,-597 321.18,-611.9 310.84,-658.79 322,-671 340.61,-691.36 372.29,-695.92 396.88,-695.94"/>
<polygon fill="#000000" fill-opacity="0.200000" stroke="#000000" stroke-width="2" stroke-opacity="0.200000" points="396.61,-698.05 402.56,-695.82 396.52,-693.85 396.61,-698.05"/>
</g>
<!-- src/classes/ui.ts&#45;&gt;src/artwork/player.png -->
<g id="edge29" class="edge">
<title>src/classes/ui.ts&#45;&gt;src/artwork/player.png</title>
<path fill="none" stroke="#000000" stroke-width="2" stroke-opacity="0.200000" d="M285.94,-392.2C296.31,-390.44 307.32,-386.48 314,-378 330.52,-357.05 304.12,-157.81 322,-138 339.52,-118.59 369.37,-115.54 393.55,-116.96"/>
<polygon fill="#000000" fill-opacity="0.200000" stroke="#000000" stroke-width="2" stroke-opacity="0.200000" points="393.34,-119.05 399.49,-117.45 393.68,-114.86 393.34,-119.05"/>
</g>
<!-- src/classes/projectile.ts&#45;&gt;src/artwork/laserGreen.png -->
<g id="edge27" class="edge">
<title>src/classes/projectile.ts&#45;&gt;src/artwork/laserGreen.png</title>
<path fill="none" stroke="#000000" stroke-width="2" stroke-opacity="0.200000" d="M401.28,-410.12C370.73,-410.16 327.76,-404.24 318,-372 314.23,-359.55 311.76,-351.02 322,-343 339.99,-328.91 363.38,-319.5 384.05,-313.38"/>
<polygon fill="#000000" fill-opacity="0.200000" stroke="#000000" stroke-width="2" stroke-opacity="0.200000" points="384.59,-315.41 389.8,-311.76 383.46,-311.36 384.59,-315.41"/>
</g>
<!-- src/html/intro.ts -->
<g id="node26" class="node">
<title>src/html/intro.ts</title>
<g id="a_node26"><a xlink:href="src/html/intro.ts" xlink:title="intro.ts">
<path fill="#ddfeff" stroke="black" d="M279.5,-710C279.5,-710 237.5,-710 237.5,-710 234.5,-710 231.5,-707 231.5,-704 231.5,-704 231.5,-698 231.5,-698 231.5,-695 234.5,-692 237.5,-692 237.5,-692 279.5,-692 279.5,-692 282.5,-692 285.5,-695 285.5,-698 285.5,-698 285.5,-704 285.5,-704 285.5,-707 282.5,-710 279.5,-710"/>
<text text-anchor="start" x="244.5" y="-698.8" font-family="Helvetica,sans-Serif" font-size="9.00">intro.ts</text>
</a>
</g>
</g>
<!-- src/html/pre&#45;intro.ts -->
<g id="node27" class="node">
<title>src/html/pre&#45;intro.ts</title>
<g id="a_node27"><a xlink:href="src/html/pre-intro.ts" xlink:title="pre&#45;intro.ts">
<path fill="#ddfeff" stroke="black" d="M282.5,-680C282.5,-680 234.5,-680 234.5,-680 231.5,-680 228.5,-677 228.5,-674 228.5,-674 228.5,-668 228.5,-668 228.5,-665 231.5,-662 234.5,-662 234.5,-662 282.5,-662 282.5,-662 285.5,-662 288.5,-665 288.5,-668 288.5,-668 288.5,-674 288.5,-674 288.5,-677 285.5,-680 282.5,-680"/>
<text text-anchor="start" x="236.5" y="-668.8" font-family="Helvetica,sans-Serif" font-size="9.00">pre&#45;intro.ts</text>
</a>
</g>
</g>
<!-- src/html/speaker&#45;symbols.ts -->
<g id="node28" class="node">
<title>src/html/speaker&#45;symbols.ts</title>
<g id="a_node28"><a xlink:href="src/html/speaker-symbols.ts" xlink:title="speaker&#45;symbols.ts">
<path fill="#ddfeff" stroke="black" d="M300,-650C300,-650 217,-650 217,-650 214,-650 211,-647 211,-644 211,-644 211,-638 211,-638 211,-635 214,-632 217,-632 217,-632 300,-632 300,-632 303,-632 306,-635 306,-638 306,-638 306,-644 306,-644 306,-647 303,-650 300,-650"/>
<text text-anchor="start" x="219" y="-638.8" font-family="Helvetica,sans-Serif" font-size="9.00">speaker&#45;symbols.ts</text>
</a>
</g>
</g>
<!-- src/main.ts -->
<g id="node29" class="node">
<title>src/main.ts</title>
<g id="a_node29"><a xlink:href="src/main.ts" xlink:title="main.ts">
<path fill="#ddfeff" stroke="black" d="M69.5,-650C69.5,-650 27.5,-650 27.5,-650 24.5,-650 21.5,-647 21.5,-644 21.5,-644 21.5,-638 21.5,-638 21.5,-635 24.5,-632 27.5,-632 27.5,-632 69.5,-632 69.5,-632 72.5,-632 75.5,-635 75.5,-638 75.5,-638 75.5,-644 75.5,-644 75.5,-647 72.5,-650 69.5,-650"/>
<text text-anchor="start" x="33.5" y="-638.8" font-family="Helvetica,sans-Serif" font-size="9.00">main.ts</text>
</a>
</g>
</g>
<!-- src/main.ts&#45;&gt;src/audio/Raining Bits.mp3 -->
<g id="edge30" class="edge">
<title>src/main.ts&#45;&gt;src/audio/Raining Bits.mp3</title>
<path fill="none" stroke="#000000" stroke-width="2" stroke-opacity="0.200000" d="M51.81,-631.69C57.64,-607.82 73.06,-542.38 81,-487 85.56,-455.21 77.9,-371.34 93,-343 98.57,-332.55 108.16,-323.87 117.46,-317.3"/>
<polygon fill="#000000" fill-opacity="0.200000" stroke="#000000" stroke-width="2" stroke-opacity="0.200000" points="118.39,-319.2 122.25,-314.15 116.08,-315.69 118.39,-319.2"/>
</g>
<!-- src/main.ts&#45;&gt;src/classes/game.ts -->
<g id="edge31" class="edge">
<title>src/main.ts&#45;&gt;src/classes/game.ts</title>
<path fill="none" stroke="#000000" stroke-width="2" stroke-opacity="0.200000" d="M49.36,-631.62C49.52,-605.95 53.63,-533.93 93,-496 97.25,-491.9 102.63,-489.05 108.26,-487.08"/>
<polygon fill="#000000" fill-opacity="0.200000" stroke="#000000" stroke-width="2" stroke-opacity="0.200000" points="108.46,-489.2 113.69,-485.58 107.34,-485.15 108.46,-489.2"/>
</g>
<!-- src/main.ts&#45;&gt;src/types/index.ts -->
<g id="edge36" class="edge">
<title>src/main.ts&#45;&gt;src/types/index.ts</title>
<path fill="none" stroke="#000000" stroke-width="2" stroke-opacity="0.200000" d="M59.21,-650.36C81.98,-671.56 141.59,-722.66 203,-739 250.67,-751.69 265.52,-748.12 314,-739 347.1,-732.78 382.84,-717.53 406.21,-706.29"/>
<polygon fill="#000000" fill-opacity="0.200000" stroke="#000000" stroke-width="2" stroke-opacity="0.200000" points="407.05,-708.21 411.51,-703.68 405.2,-704.44 407.05,-708.21"/>
</g>
<!-- src/main.ts&#45;&gt;src/html/intro.ts -->
<g id="edge32" class="edge">
<title>src/main.ts&#45;&gt;src/html/intro.ts</title>
<path fill="none" stroke="#000000" stroke-width="2" stroke-opacity="0.200000" d="M71.9,-650.33C78.62,-652.97 86.06,-655.75 93,-658 137.07,-672.32 188.94,-685.24 222.48,-693.1"/>
<polygon fill="#000000" fill-opacity="0.200000" stroke="#000000" stroke-width="2" stroke-opacity="0.200000" points="221.75,-695.09 228.07,-694.4 222.7,-691 221.75,-695.09"/>
</g>
<!-- src/main.ts&#45;&gt;src/html/pre&#45;intro.ts -->
<g id="edge33" class="edge">
<title>src/main.ts&#45;&gt;src/html/pre&#45;intro.ts</title>
<path fill="none" stroke="#000000" stroke-width="2" stroke-opacity="0.200000" d="M75.84,-644.8C112.1,-650.03 177.61,-659.48 219.26,-665.48"/>
<polygon fill="#000000" fill-opacity="0.200000" stroke="#000000" stroke-width="2" stroke-opacity="0.200000" points="218.79,-667.54 225.03,-666.32 219.39,-663.38 218.79,-667.54"/>
</g>
<!-- src/main.ts&#45;&gt;src/html/speaker&#45;symbols.ts -->
<g id="edge34" class="edge">
<title>src/main.ts&#45;&gt;src/html/speaker&#45;symbols.ts</title>
<path fill="none" stroke="#000000" stroke-width="2" stroke-opacity="0.200000" d="M75.84,-641C107.41,-641 161.17,-641 202.03,-641"/>
<polygon fill="#000000" fill-opacity="0.200000" stroke="#000000" stroke-width="2" stroke-opacity="0.200000" points="201.78,-643.1 207.78,-641 201.78,-638.9 201.78,-643.1"/>
</g>
<!-- src/setup&#45;intro&#45;screen.ts -->
<g id="node30" class="node">
<title>src/setup&#45;intro&#45;screen.ts</title>
<g id="a_node30"><a xlink:href="src/setup-intro-screen.ts" xlink:title="setup&#45;intro&#45;screen.ts">
<path fill="#ddfeff" stroke="black" d="M188,-626C188,-626 100,-626 100,-626 97,-626 94,-623 94,-620 94,-620 94,-614 94,-614 94,-611 97,-608 100,-608 100,-608 188,-608 188,-608 191,-608 194,-611 194,-614 194,-614 194,-620 194,-620 194,-623 191,-626 188,-626"/>
<text text-anchor="start" x="102" y="-614.8" font-family="Helvetica,sans-Serif" font-size="9.00">setup&#45;intro&#45;screen.ts</text>
</a>
</g>
</g>
<!-- src/main.ts&#45;&gt;src/setup&#45;intro&#45;screen.ts -->
<g id="edge35" class="edge">
<title>src/main.ts&#45;&gt;src/setup&#45;intro&#45;screen.ts</title>
<path fill="none" stroke="#000000" stroke-width="2" stroke-opacity="0.200000" d="M75.54,-634.31C82.53,-632.52 90.29,-630.53 97.98,-628.56"/>
<polygon fill="#000000" fill-opacity="0.200000" stroke="#000000" stroke-width="2" stroke-opacity="0.200000" points="98.04,-630.71 103.33,-627.18 97,-626.64 98.04,-630.71"/>
</g>
<!-- src/setup&#45;intro&#45;screen.ts&#45;&gt;src/lib/util.ts -->
<g id="edge38" class="edge">
<title>src/setup&#45;intro&#45;screen.ts&#45;&gt;src/lib/util.ts</title>
<path fill="none" stroke="#000000" stroke-width="2" stroke-opacity="0.200000" d="M194.33,-611.55C197.26,-611.33 200.17,-611.15 203,-611 252.27,-608.46 267.82,-593.65 314,-611 318.42,-612.66 317.7,-616.04 322,-618 345.59,-628.74 374.75,-632.33 397.12,-633.33"/>
<polygon fill="#000000" fill-opacity="0.200000" stroke="#000000" stroke-width="2" stroke-opacity="0.200000" points="396.85,-635.42 402.92,-633.51 396.99,-631.22 396.85,-635.42"/>
</g>
<!-- src/setup&#45;intro&#45;screen.ts&#45;&gt;src/types/index.ts -->
<g id="edge39" class="edge">
<title>src/setup&#45;intro&#45;screen.ts&#45;&gt;src/types/index.ts</title>
<path fill="none" stroke="#000000" stroke-width="2" stroke-opacity="0.200000" d="M194.32,-611.46C237.77,-607.75 296.76,-605.94 314,-621 330.95,-635.8 306.4,-654.78 322,-671 341.04,-690.79 372.47,-695.45 396.87,-695.65"/>
<polygon fill="#000000" fill-opacity="0.200000" stroke="#000000" stroke-width="2" stroke-opacity="0.200000" points="396.84,-697.75 402.81,-695.57 396.78,-693.55 396.84,-697.75"/>
</g>
<!-- src/setup&#45;intro&#45;screen.ts&#45;&gt;src/html/speaker&#45;symbols.ts -->
<g id="edge37" class="edge">
<title>src/setup&#45;intro&#45;screen.ts&#45;&gt;src/html/speaker&#45;symbols.ts</title>
<path fill="none" stroke="#000000" stroke-width="2" stroke-opacity="0.200000" d="M189.46,-626.49C194.3,-627.52 199.26,-628.58 204.19,-629.63"/>
<polygon fill="#000000" fill-opacity="0.200000" stroke="#000000" stroke-width="2" stroke-opacity="0.200000" points="203.73,-631.68 210.03,-630.87 204.6,-627.57 203.73,-631.68"/>
</g>
<!-- src/vite&#45;env.d.ts -->
<g id="node31" class="node">
<title>src/vite&#45;env.d.ts</title>
<g id="a_node31"><a xlink:href="src/vite-env.d.ts" xlink:title="vite&#45;env.d.ts">
<path fill="#ccffcc" stroke="black" d="M75,-481C75,-481 22,-481 22,-481 19,-481 16,-478 16,-475 16,-475 16,-469 16,-469 16,-466 19,-463 22,-463 22,-463 75,-463 75,-463 78,-463 81,-466 81,-469 81,-469 81,-475 81,-475 81,-478 78,-481 75,-481"/>
<text text-anchor="start" x="24" y="-469.8" font-family="Helvetica,sans-Serif" font-size="9.00">vite&#45;env.d.ts</text>
</a>
</g>
</g>
<!-- src/zzfx.d.ts -->
<g id="node32" class="node">
<title>src/zzfx.d.ts</title>
<g id="a_node32"><a xlink:href="src/zzfx.d.ts" xlink:title="zzfx.d.ts">
<path fill="#ccffcc" stroke="black" d="M69.5,-173C69.5,-173 27.5,-173 27.5,-173 24.5,-173 21.5,-170 21.5,-167 21.5,-167 21.5,-161 21.5,-161 21.5,-158 24.5,-155 27.5,-155 27.5,-155 69.5,-155 69.5,-155 72.5,-155 75.5,-158 75.5,-161 75.5,-161 75.5,-167 75.5,-167 75.5,-170 72.5,-173 69.5,-173"/>
<text text-anchor="start" x="32" y="-161.8" font-family="Helvetica,sans-Serif" font-size="9.00">zzfx.d.ts</text>
</a>
</g>
</g>
</g>
</svg>
